M48
; DRILL file {KiCad 9.0.0} date 2025-03-07T16:35:21+0800
; FORMAT={-:-/ absolute / metric / decimal}
; #@! TF.CreationDate,2025-03-07T16:35:21+08:00
; #@! TF.GenerationSoftware,Kicad,Pcbnew,9.0.0
; #@! TF.FileFunction,MixedPlating,1,2
FMAT,2
METRIC
; #@! TA.AperFunction,Plated,PTH,ViaDrill
T1C0.300
; #@! TA.AperFunction,Plated,PTH,ComponentDrill
T2C0.900
; #@! TA.AperFunction,Plated,PTH,ComponentDrill
T3C1.000
%
G90
G05
T1
X109.515Y-63.24
X109.515Y-65.78
X112.38Y-47.0
X112.38Y-52.04
X114.92Y-47.0
X114.92Y-52.04
X116.45Y-72.875
X117.5Y-47.0
X117.5Y-52.0
X118.5Y-71.5
X120.0Y-47.0
X120.0Y-52.0
X122.54Y-47.0
X122.54Y-52.04
X125.485Y-50.54
X125.485Y-53.08
X125.485Y-63.24
X125.485Y-65.78
T2
X115.73Y-84.0
X118.27Y-84.0
T3
X105.6Y-63.135
X105.6Y-65.675
X129.2Y-57.98
X129.2Y-60.52
X129.2Y-63.06
X129.2Y-65.6
M30
