%TF.GenerationSoftware,KiCad,Pcbnew,9.0.0*%
%TF.CreationDate,2025-03-07T16:35:21+08:00*%
%TF.ProjectId,Esp32InfraredController,45737033-3249-46e6-9672-61726564436f,rev?*%
%TF.SameCoordinates,Original*%
%TF.FileFunction,Drillmap*%
%TF.FilePolarity,Positive*%
%FSLAX45Y45*%
G04 Gerber Fmt 4.5, Leading zero omitted, Abs format (unit mm)*
G04 Created by KiCad (PCBNEW 9.0.0) date 2025-03-07 16:35:21*
%MOMM*%
%LPD*%
G01*
G04 APERTURE LIST*
%ADD10C,0.050000*%
%ADD11C,0.200000*%
%ADD12C,0.100000*%
G04 APERTURE END LIST*
D10*
X12978000Y-8372000D02*
G75*
G02*
X12778000Y-8372000I-100000J0D01*
G01*
X12778000Y-8372000D02*
G75*
G02*
X12978000Y-8372000I100000J0D01*
G01*
X10700000Y-4950000D02*
G75*
G02*
X10500000Y-4950000I-100000J0D01*
G01*
X10500000Y-4950000D02*
G75*
G02*
X10700000Y-4950000I100000J0D01*
G01*
X10700000Y-8372000D02*
G75*
G02*
X10500000Y-8372000I-100000J0D01*
G01*
X10500000Y-8372000D02*
G75*
G02*
X10700000Y-8372000I100000J0D01*
G01*
X12978000Y-4950000D02*
G75*
G02*
X12778000Y-4950000I-100000J0D01*
G01*
X12778000Y-4950000D02*
G75*
G02*
X12978000Y-4950000I100000J0D01*
G01*
D11*
X10350000Y-4500000D02*
X13128000Y-4500000D01*
X13128000Y-8622000D01*
X10350000Y-8622000D01*
X10350000Y-4500000D01*
D12*
X10936500Y-6309000D02*
X10966500Y-6339000D01*
X10966500Y-6309000D02*
X10936500Y-6339000D01*
X10936500Y-6563000D02*
X10966500Y-6593000D01*
X10966500Y-6563000D02*
X10936500Y-6593000D01*
X11223000Y-4685000D02*
X11253000Y-4715000D01*
X11253000Y-4685000D02*
X11223000Y-4715000D01*
X11223000Y-5189000D02*
X11253000Y-5219000D01*
X11253000Y-5189000D02*
X11223000Y-5219000D01*
X11477000Y-4685000D02*
X11507000Y-4715000D01*
X11507000Y-4685000D02*
X11477000Y-4715000D01*
X11477000Y-5189000D02*
X11507000Y-5219000D01*
X11507000Y-5189000D02*
X11477000Y-5219000D01*
X11630000Y-7272500D02*
X11660000Y-7302500D01*
X11660000Y-7272500D02*
X11630000Y-7302500D01*
X11735000Y-4685000D02*
X11765000Y-4715000D01*
X11765000Y-4685000D02*
X11735000Y-4715000D01*
X11735000Y-5185000D02*
X11765000Y-5215000D01*
X11765000Y-5185000D02*
X11735000Y-5215000D01*
X11835000Y-7135000D02*
X11865000Y-7165000D01*
X11865000Y-7135000D02*
X11835000Y-7165000D01*
X11985000Y-4685000D02*
X12015000Y-4715000D01*
X12015000Y-4685000D02*
X11985000Y-4715000D01*
X11985000Y-5185000D02*
X12015000Y-5215000D01*
X12015000Y-5185000D02*
X11985000Y-5215000D01*
X12239000Y-4685000D02*
X12269000Y-4715000D01*
X12269000Y-4685000D02*
X12239000Y-4715000D01*
X12239000Y-5189000D02*
X12269000Y-5219000D01*
X12269000Y-5189000D02*
X12239000Y-5219000D01*
X12533500Y-5039000D02*
X12563500Y-5069000D01*
X12563500Y-5039000D02*
X12533500Y-5069000D01*
X12533500Y-5293000D02*
X12563500Y-5323000D01*
X12563500Y-5293000D02*
X12533500Y-5323000D01*
X12533500Y-6309000D02*
X12563500Y-6339000D01*
X12563500Y-6309000D02*
X12533500Y-6339000D01*
X12533500Y-6563000D02*
X12563500Y-6593000D01*
X12563500Y-6563000D02*
X12533500Y-6593000D01*
X11618000Y-8400000D02*
G75*
G02*
X11528000Y-8400000I-45000J0D01*
G01*
X11528000Y-8400000D02*
G75*
G02*
X11618000Y-8400000I45000J0D01*
G01*
X11872000Y-8400000D02*
G75*
G02*
X11782000Y-8400000I-45000J0D01*
G01*
X11782000Y-8400000D02*
G75*
G02*
X11872000Y-8400000I45000J0D01*
G01*
X10560000Y-6263500D02*
X10560000Y-6363500D01*
X10510000Y-6313500D02*
X10610000Y-6313500D01*
X10560000Y-6517500D02*
X10560000Y-6617500D01*
X10510000Y-6567500D02*
X10610000Y-6567500D01*
X12920000Y-5748000D02*
X12920000Y-5848000D01*
X12870000Y-5798000D02*
X12970000Y-5798000D01*
X12920000Y-6002000D02*
X12920000Y-6102000D01*
X12870000Y-6052000D02*
X12970000Y-6052000D01*
X12920000Y-6256000D02*
X12920000Y-6356000D01*
X12870000Y-6306000D02*
X12970000Y-6306000D01*
X12920000Y-6510000D02*
X12920000Y-6610000D01*
X12870000Y-6560000D02*
X12970000Y-6560000D01*
D11*
X10600777Y-8943484D02*
X10600777Y-8743484D01*
X10600777Y-8743484D02*
X10648396Y-8743484D01*
X10648396Y-8743484D02*
X10676967Y-8753008D01*
X10676967Y-8753008D02*
X10696015Y-8772055D01*
X10696015Y-8772055D02*
X10705539Y-8791103D01*
X10705539Y-8791103D02*
X10715063Y-8829198D01*
X10715063Y-8829198D02*
X10715063Y-8857770D01*
X10715063Y-8857770D02*
X10705539Y-8895865D01*
X10705539Y-8895865D02*
X10696015Y-8914912D01*
X10696015Y-8914912D02*
X10676967Y-8933960D01*
X10676967Y-8933960D02*
X10648396Y-8943484D01*
X10648396Y-8943484D02*
X10600777Y-8943484D01*
X10800777Y-8943484D02*
X10800777Y-8810150D01*
X10800777Y-8848246D02*
X10810301Y-8829198D01*
X10810301Y-8829198D02*
X10819824Y-8819674D01*
X10819824Y-8819674D02*
X10838872Y-8810150D01*
X10838872Y-8810150D02*
X10857920Y-8810150D01*
X10924586Y-8943484D02*
X10924586Y-8810150D01*
X10924586Y-8743484D02*
X10915063Y-8753008D01*
X10915063Y-8753008D02*
X10924586Y-8762531D01*
X10924586Y-8762531D02*
X10934110Y-8753008D01*
X10934110Y-8753008D02*
X10924586Y-8743484D01*
X10924586Y-8743484D02*
X10924586Y-8762531D01*
X11048396Y-8943484D02*
X11029348Y-8933960D01*
X11029348Y-8933960D02*
X11019824Y-8914912D01*
X11019824Y-8914912D02*
X11019824Y-8743484D01*
X11153158Y-8943484D02*
X11134110Y-8933960D01*
X11134110Y-8933960D02*
X11124586Y-8914912D01*
X11124586Y-8914912D02*
X11124586Y-8743484D01*
X11381729Y-8943484D02*
X11381729Y-8743484D01*
X11381729Y-8743484D02*
X11448396Y-8886341D01*
X11448396Y-8886341D02*
X11515062Y-8743484D01*
X11515062Y-8743484D02*
X11515062Y-8943484D01*
X11696015Y-8943484D02*
X11696015Y-8838722D01*
X11696015Y-8838722D02*
X11686491Y-8819674D01*
X11686491Y-8819674D02*
X11667443Y-8810150D01*
X11667443Y-8810150D02*
X11629348Y-8810150D01*
X11629348Y-8810150D02*
X11610301Y-8819674D01*
X11696015Y-8933960D02*
X11676967Y-8943484D01*
X11676967Y-8943484D02*
X11629348Y-8943484D01*
X11629348Y-8943484D02*
X11610301Y-8933960D01*
X11610301Y-8933960D02*
X11600777Y-8914912D01*
X11600777Y-8914912D02*
X11600777Y-8895865D01*
X11600777Y-8895865D02*
X11610301Y-8876817D01*
X11610301Y-8876817D02*
X11629348Y-8867293D01*
X11629348Y-8867293D02*
X11676967Y-8867293D01*
X11676967Y-8867293D02*
X11696015Y-8857770D01*
X11791253Y-8810150D02*
X11791253Y-9010150D01*
X11791253Y-8819674D02*
X11810301Y-8810150D01*
X11810301Y-8810150D02*
X11848396Y-8810150D01*
X11848396Y-8810150D02*
X11867443Y-8819674D01*
X11867443Y-8819674D02*
X11876967Y-8829198D01*
X11876967Y-8829198D02*
X11886491Y-8848246D01*
X11886491Y-8848246D02*
X11886491Y-8905389D01*
X11886491Y-8905389D02*
X11876967Y-8924436D01*
X11876967Y-8924436D02*
X11867443Y-8933960D01*
X11867443Y-8933960D02*
X11848396Y-8943484D01*
X11848396Y-8943484D02*
X11810301Y-8943484D01*
X11810301Y-8943484D02*
X11791253Y-8933960D01*
X11972205Y-8924436D02*
X11981729Y-8933960D01*
X11981729Y-8933960D02*
X11972205Y-8943484D01*
X11972205Y-8943484D02*
X11962682Y-8933960D01*
X11962682Y-8933960D02*
X11972205Y-8924436D01*
X11972205Y-8924436D02*
X11972205Y-8943484D01*
X11972205Y-8819674D02*
X11981729Y-8829198D01*
X11981729Y-8829198D02*
X11972205Y-8838722D01*
X11972205Y-8838722D02*
X11962682Y-8829198D01*
X11962682Y-8829198D02*
X11972205Y-8819674D01*
X11972205Y-8819674D02*
X11972205Y-8838722D01*
D12*
X10310000Y-9257000D02*
X10340000Y-9287000D01*
X10340000Y-9257000D02*
X10310000Y-9287000D01*
D11*
X10638872Y-9163484D02*
X10657920Y-9163484D01*
X10657920Y-9163484D02*
X10676967Y-9173008D01*
X10676967Y-9173008D02*
X10686491Y-9182531D01*
X10686491Y-9182531D02*
X10696015Y-9201579D01*
X10696015Y-9201579D02*
X10705539Y-9239674D01*
X10705539Y-9239674D02*
X10705539Y-9287293D01*
X10705539Y-9287293D02*
X10696015Y-9325389D01*
X10696015Y-9325389D02*
X10686491Y-9344436D01*
X10686491Y-9344436D02*
X10676967Y-9353960D01*
X10676967Y-9353960D02*
X10657920Y-9363484D01*
X10657920Y-9363484D02*
X10638872Y-9363484D01*
X10638872Y-9363484D02*
X10619824Y-9353960D01*
X10619824Y-9353960D02*
X10610301Y-9344436D01*
X10610301Y-9344436D02*
X10600777Y-9325389D01*
X10600777Y-9325389D02*
X10591253Y-9287293D01*
X10591253Y-9287293D02*
X10591253Y-9239674D01*
X10591253Y-9239674D02*
X10600777Y-9201579D01*
X10600777Y-9201579D02*
X10610301Y-9182531D01*
X10610301Y-9182531D02*
X10619824Y-9173008D01*
X10619824Y-9173008D02*
X10638872Y-9163484D01*
X10791253Y-9344436D02*
X10800777Y-9353960D01*
X10800777Y-9353960D02*
X10791253Y-9363484D01*
X10791253Y-9363484D02*
X10781729Y-9353960D01*
X10781729Y-9353960D02*
X10791253Y-9344436D01*
X10791253Y-9344436D02*
X10791253Y-9363484D01*
X10867444Y-9163484D02*
X10991253Y-9163484D01*
X10991253Y-9163484D02*
X10924586Y-9239674D01*
X10924586Y-9239674D02*
X10953158Y-9239674D01*
X10953158Y-9239674D02*
X10972205Y-9249198D01*
X10972205Y-9249198D02*
X10981729Y-9258722D01*
X10981729Y-9258722D02*
X10991253Y-9277770D01*
X10991253Y-9277770D02*
X10991253Y-9325389D01*
X10991253Y-9325389D02*
X10981729Y-9344436D01*
X10981729Y-9344436D02*
X10972205Y-9353960D01*
X10972205Y-9353960D02*
X10953158Y-9363484D01*
X10953158Y-9363484D02*
X10896015Y-9363484D01*
X10896015Y-9363484D02*
X10876967Y-9353960D01*
X10876967Y-9353960D02*
X10867444Y-9344436D01*
X11115063Y-9163484D02*
X11134110Y-9163484D01*
X11134110Y-9163484D02*
X11153158Y-9173008D01*
X11153158Y-9173008D02*
X11162682Y-9182531D01*
X11162682Y-9182531D02*
X11172205Y-9201579D01*
X11172205Y-9201579D02*
X11181729Y-9239674D01*
X11181729Y-9239674D02*
X11181729Y-9287293D01*
X11181729Y-9287293D02*
X11172205Y-9325389D01*
X11172205Y-9325389D02*
X11162682Y-9344436D01*
X11162682Y-9344436D02*
X11153158Y-9353960D01*
X11153158Y-9353960D02*
X11134110Y-9363484D01*
X11134110Y-9363484D02*
X11115063Y-9363484D01*
X11115063Y-9363484D02*
X11096015Y-9353960D01*
X11096015Y-9353960D02*
X11086491Y-9344436D01*
X11086491Y-9344436D02*
X11076967Y-9325389D01*
X11076967Y-9325389D02*
X11067444Y-9287293D01*
X11067444Y-9287293D02*
X11067444Y-9239674D01*
X11067444Y-9239674D02*
X11076967Y-9201579D01*
X11076967Y-9201579D02*
X11086491Y-9182531D01*
X11086491Y-9182531D02*
X11096015Y-9173008D01*
X11096015Y-9173008D02*
X11115063Y-9163484D01*
X11305539Y-9163484D02*
X11324586Y-9163484D01*
X11324586Y-9163484D02*
X11343634Y-9173008D01*
X11343634Y-9173008D02*
X11353158Y-9182531D01*
X11353158Y-9182531D02*
X11362682Y-9201579D01*
X11362682Y-9201579D02*
X11372205Y-9239674D01*
X11372205Y-9239674D02*
X11372205Y-9287293D01*
X11372205Y-9287293D02*
X11362682Y-9325389D01*
X11362682Y-9325389D02*
X11353158Y-9344436D01*
X11353158Y-9344436D02*
X11343634Y-9353960D01*
X11343634Y-9353960D02*
X11324586Y-9363484D01*
X11324586Y-9363484D02*
X11305539Y-9363484D01*
X11305539Y-9363484D02*
X11286491Y-9353960D01*
X11286491Y-9353960D02*
X11276967Y-9344436D01*
X11276967Y-9344436D02*
X11267443Y-9325389D01*
X11267443Y-9325389D02*
X11257920Y-9287293D01*
X11257920Y-9287293D02*
X11257920Y-9239674D01*
X11257920Y-9239674D02*
X11267443Y-9201579D01*
X11267443Y-9201579D02*
X11276967Y-9182531D01*
X11276967Y-9182531D02*
X11286491Y-9173008D01*
X11286491Y-9173008D02*
X11305539Y-9163484D01*
X11457920Y-9363484D02*
X11457920Y-9230150D01*
X11457920Y-9249198D02*
X11467443Y-9239674D01*
X11467443Y-9239674D02*
X11486491Y-9230150D01*
X11486491Y-9230150D02*
X11515063Y-9230150D01*
X11515063Y-9230150D02*
X11534110Y-9239674D01*
X11534110Y-9239674D02*
X11543634Y-9258722D01*
X11543634Y-9258722D02*
X11543634Y-9363484D01*
X11543634Y-9258722D02*
X11553158Y-9239674D01*
X11553158Y-9239674D02*
X11572205Y-9230150D01*
X11572205Y-9230150D02*
X11600777Y-9230150D01*
X11600777Y-9230150D02*
X11619824Y-9239674D01*
X11619824Y-9239674D02*
X11629348Y-9258722D01*
X11629348Y-9258722D02*
X11629348Y-9363484D01*
X11724586Y-9363484D02*
X11724586Y-9230150D01*
X11724586Y-9249198D02*
X11734110Y-9239674D01*
X11734110Y-9239674D02*
X11753158Y-9230150D01*
X11753158Y-9230150D02*
X11781729Y-9230150D01*
X11781729Y-9230150D02*
X11800777Y-9239674D01*
X11800777Y-9239674D02*
X11810301Y-9258722D01*
X11810301Y-9258722D02*
X11810301Y-9363484D01*
X11810301Y-9258722D02*
X11819824Y-9239674D01*
X11819824Y-9239674D02*
X11838872Y-9230150D01*
X11838872Y-9230150D02*
X11867443Y-9230150D01*
X11867443Y-9230150D02*
X11886491Y-9239674D01*
X11886491Y-9239674D02*
X11896015Y-9258722D01*
X11896015Y-9258722D02*
X11896015Y-9363484D01*
X12286491Y-9153960D02*
X12115063Y-9411103D01*
X12543634Y-9163484D02*
X12562682Y-9163484D01*
X12562682Y-9163484D02*
X12581729Y-9173008D01*
X12581729Y-9173008D02*
X12591253Y-9182531D01*
X12591253Y-9182531D02*
X12600777Y-9201579D01*
X12600777Y-9201579D02*
X12610301Y-9239674D01*
X12610301Y-9239674D02*
X12610301Y-9287293D01*
X12610301Y-9287293D02*
X12600777Y-9325389D01*
X12600777Y-9325389D02*
X12591253Y-9344436D01*
X12591253Y-9344436D02*
X12581729Y-9353960D01*
X12581729Y-9353960D02*
X12562682Y-9363484D01*
X12562682Y-9363484D02*
X12543634Y-9363484D01*
X12543634Y-9363484D02*
X12524586Y-9353960D01*
X12524586Y-9353960D02*
X12515063Y-9344436D01*
X12515063Y-9344436D02*
X12505539Y-9325389D01*
X12505539Y-9325389D02*
X12496015Y-9287293D01*
X12496015Y-9287293D02*
X12496015Y-9239674D01*
X12496015Y-9239674D02*
X12505539Y-9201579D01*
X12505539Y-9201579D02*
X12515063Y-9182531D01*
X12515063Y-9182531D02*
X12524586Y-9173008D01*
X12524586Y-9173008D02*
X12543634Y-9163484D01*
X12696015Y-9344436D02*
X12705539Y-9353960D01*
X12705539Y-9353960D02*
X12696015Y-9363484D01*
X12696015Y-9363484D02*
X12686491Y-9353960D01*
X12686491Y-9353960D02*
X12696015Y-9344436D01*
X12696015Y-9344436D02*
X12696015Y-9363484D01*
X12829348Y-9163484D02*
X12848396Y-9163484D01*
X12848396Y-9163484D02*
X12867444Y-9173008D01*
X12867444Y-9173008D02*
X12876967Y-9182531D01*
X12876967Y-9182531D02*
X12886491Y-9201579D01*
X12886491Y-9201579D02*
X12896015Y-9239674D01*
X12896015Y-9239674D02*
X12896015Y-9287293D01*
X12896015Y-9287293D02*
X12886491Y-9325389D01*
X12886491Y-9325389D02*
X12876967Y-9344436D01*
X12876967Y-9344436D02*
X12867444Y-9353960D01*
X12867444Y-9353960D02*
X12848396Y-9363484D01*
X12848396Y-9363484D02*
X12829348Y-9363484D01*
X12829348Y-9363484D02*
X12810301Y-9353960D01*
X12810301Y-9353960D02*
X12800777Y-9344436D01*
X12800777Y-9344436D02*
X12791253Y-9325389D01*
X12791253Y-9325389D02*
X12781729Y-9287293D01*
X12781729Y-9287293D02*
X12781729Y-9239674D01*
X12781729Y-9239674D02*
X12791253Y-9201579D01*
X12791253Y-9201579D02*
X12800777Y-9182531D01*
X12800777Y-9182531D02*
X12810301Y-9173008D01*
X12810301Y-9173008D02*
X12829348Y-9163484D01*
X13086491Y-9363484D02*
X12972206Y-9363484D01*
X13029348Y-9363484D02*
X13029348Y-9163484D01*
X13029348Y-9163484D02*
X13010301Y-9192055D01*
X13010301Y-9192055D02*
X12991253Y-9211103D01*
X12991253Y-9211103D02*
X12972206Y-9220627D01*
X13276967Y-9363484D02*
X13162682Y-9363484D01*
X13219825Y-9363484D02*
X13219825Y-9163484D01*
X13219825Y-9163484D02*
X13200777Y-9192055D01*
X13200777Y-9192055D02*
X13181729Y-9211103D01*
X13181729Y-9211103D02*
X13162682Y-9220627D01*
X13391253Y-9249198D02*
X13372206Y-9239674D01*
X13372206Y-9239674D02*
X13362682Y-9230150D01*
X13362682Y-9230150D02*
X13353158Y-9211103D01*
X13353158Y-9211103D02*
X13353158Y-9201579D01*
X13353158Y-9201579D02*
X13362682Y-9182531D01*
X13362682Y-9182531D02*
X13372206Y-9173008D01*
X13372206Y-9173008D02*
X13391253Y-9163484D01*
X13391253Y-9163484D02*
X13429348Y-9163484D01*
X13429348Y-9163484D02*
X13448396Y-9173008D01*
X13448396Y-9173008D02*
X13457920Y-9182531D01*
X13457920Y-9182531D02*
X13467444Y-9201579D01*
X13467444Y-9201579D02*
X13467444Y-9211103D01*
X13467444Y-9211103D02*
X13457920Y-9230150D01*
X13457920Y-9230150D02*
X13448396Y-9239674D01*
X13448396Y-9239674D02*
X13429348Y-9249198D01*
X13429348Y-9249198D02*
X13391253Y-9249198D01*
X13391253Y-9249198D02*
X13372206Y-9258722D01*
X13372206Y-9258722D02*
X13362682Y-9268246D01*
X13362682Y-9268246D02*
X13353158Y-9287293D01*
X13353158Y-9287293D02*
X13353158Y-9325389D01*
X13353158Y-9325389D02*
X13362682Y-9344436D01*
X13362682Y-9344436D02*
X13372206Y-9353960D01*
X13372206Y-9353960D02*
X13391253Y-9363484D01*
X13391253Y-9363484D02*
X13429348Y-9363484D01*
X13429348Y-9363484D02*
X13448396Y-9353960D01*
X13448396Y-9353960D02*
X13457920Y-9344436D01*
X13457920Y-9344436D02*
X13467444Y-9325389D01*
X13467444Y-9325389D02*
X13467444Y-9287293D01*
X13467444Y-9287293D02*
X13457920Y-9268246D01*
X13457920Y-9268246D02*
X13448396Y-9258722D01*
X13448396Y-9258722D02*
X13429348Y-9249198D01*
X13543634Y-9163484D02*
X13543634Y-9201579D01*
X13619825Y-9163484D02*
X13619825Y-9201579D01*
X13915063Y-9439674D02*
X13905539Y-9430150D01*
X13905539Y-9430150D02*
X13886491Y-9401579D01*
X13886491Y-9401579D02*
X13876968Y-9382531D01*
X13876968Y-9382531D02*
X13867444Y-9353960D01*
X13867444Y-9353960D02*
X13857920Y-9306341D01*
X13857920Y-9306341D02*
X13857920Y-9268246D01*
X13857920Y-9268246D02*
X13867444Y-9220627D01*
X13867444Y-9220627D02*
X13876968Y-9192055D01*
X13876968Y-9192055D02*
X13886491Y-9173008D01*
X13886491Y-9173008D02*
X13905539Y-9144436D01*
X13905539Y-9144436D02*
X13915063Y-9134912D01*
X14096015Y-9363484D02*
X13981729Y-9363484D01*
X14038872Y-9363484D02*
X14038872Y-9163484D01*
X14038872Y-9163484D02*
X14019825Y-9192055D01*
X14019825Y-9192055D02*
X14000777Y-9211103D01*
X14000777Y-9211103D02*
X13981729Y-9220627D01*
X14210301Y-9249198D02*
X14191253Y-9239674D01*
X14191253Y-9239674D02*
X14181729Y-9230150D01*
X14181729Y-9230150D02*
X14172206Y-9211103D01*
X14172206Y-9211103D02*
X14172206Y-9201579D01*
X14172206Y-9201579D02*
X14181729Y-9182531D01*
X14181729Y-9182531D02*
X14191253Y-9173008D01*
X14191253Y-9173008D02*
X14210301Y-9163484D01*
X14210301Y-9163484D02*
X14248396Y-9163484D01*
X14248396Y-9163484D02*
X14267444Y-9173008D01*
X14267444Y-9173008D02*
X14276968Y-9182531D01*
X14276968Y-9182531D02*
X14286491Y-9201579D01*
X14286491Y-9201579D02*
X14286491Y-9211103D01*
X14286491Y-9211103D02*
X14276968Y-9230150D01*
X14276968Y-9230150D02*
X14267444Y-9239674D01*
X14267444Y-9239674D02*
X14248396Y-9249198D01*
X14248396Y-9249198D02*
X14210301Y-9249198D01*
X14210301Y-9249198D02*
X14191253Y-9258722D01*
X14191253Y-9258722D02*
X14181729Y-9268246D01*
X14181729Y-9268246D02*
X14172206Y-9287293D01*
X14172206Y-9287293D02*
X14172206Y-9325389D01*
X14172206Y-9325389D02*
X14181729Y-9344436D01*
X14181729Y-9344436D02*
X14191253Y-9353960D01*
X14191253Y-9353960D02*
X14210301Y-9363484D01*
X14210301Y-9363484D02*
X14248396Y-9363484D01*
X14248396Y-9363484D02*
X14267444Y-9353960D01*
X14267444Y-9353960D02*
X14276968Y-9344436D01*
X14276968Y-9344436D02*
X14286491Y-9325389D01*
X14286491Y-9325389D02*
X14286491Y-9287293D01*
X14286491Y-9287293D02*
X14276968Y-9268246D01*
X14276968Y-9268246D02*
X14267444Y-9258722D01*
X14267444Y-9258722D02*
X14248396Y-9249198D01*
X14524587Y-9363484D02*
X14524587Y-9163484D01*
X14610301Y-9363484D02*
X14610301Y-9258722D01*
X14610301Y-9258722D02*
X14600777Y-9239674D01*
X14600777Y-9239674D02*
X14581730Y-9230150D01*
X14581730Y-9230150D02*
X14553158Y-9230150D01*
X14553158Y-9230150D02*
X14534110Y-9239674D01*
X14534110Y-9239674D02*
X14524587Y-9249198D01*
X14734110Y-9363484D02*
X14715063Y-9353960D01*
X14715063Y-9353960D02*
X14705539Y-9344436D01*
X14705539Y-9344436D02*
X14696015Y-9325389D01*
X14696015Y-9325389D02*
X14696015Y-9268246D01*
X14696015Y-9268246D02*
X14705539Y-9249198D01*
X14705539Y-9249198D02*
X14715063Y-9239674D01*
X14715063Y-9239674D02*
X14734110Y-9230150D01*
X14734110Y-9230150D02*
X14762682Y-9230150D01*
X14762682Y-9230150D02*
X14781730Y-9239674D01*
X14781730Y-9239674D02*
X14791253Y-9249198D01*
X14791253Y-9249198D02*
X14800777Y-9268246D01*
X14800777Y-9268246D02*
X14800777Y-9325389D01*
X14800777Y-9325389D02*
X14791253Y-9344436D01*
X14791253Y-9344436D02*
X14781730Y-9353960D01*
X14781730Y-9353960D02*
X14762682Y-9363484D01*
X14762682Y-9363484D02*
X14734110Y-9363484D01*
X14915063Y-9363484D02*
X14896015Y-9353960D01*
X14896015Y-9353960D02*
X14886491Y-9334912D01*
X14886491Y-9334912D02*
X14886491Y-9163484D01*
X15067444Y-9353960D02*
X15048396Y-9363484D01*
X15048396Y-9363484D02*
X15010301Y-9363484D01*
X15010301Y-9363484D02*
X14991253Y-9353960D01*
X14991253Y-9353960D02*
X14981730Y-9334912D01*
X14981730Y-9334912D02*
X14981730Y-9258722D01*
X14981730Y-9258722D02*
X14991253Y-9239674D01*
X14991253Y-9239674D02*
X15010301Y-9230150D01*
X15010301Y-9230150D02*
X15048396Y-9230150D01*
X15048396Y-9230150D02*
X15067444Y-9239674D01*
X15067444Y-9239674D02*
X15076968Y-9258722D01*
X15076968Y-9258722D02*
X15076968Y-9277770D01*
X15076968Y-9277770D02*
X14981730Y-9296817D01*
X15153158Y-9353960D02*
X15172206Y-9363484D01*
X15172206Y-9363484D02*
X15210301Y-9363484D01*
X15210301Y-9363484D02*
X15229349Y-9353960D01*
X15229349Y-9353960D02*
X15238872Y-9334912D01*
X15238872Y-9334912D02*
X15238872Y-9325389D01*
X15238872Y-9325389D02*
X15229349Y-9306341D01*
X15229349Y-9306341D02*
X15210301Y-9296817D01*
X15210301Y-9296817D02*
X15181730Y-9296817D01*
X15181730Y-9296817D02*
X15162682Y-9287293D01*
X15162682Y-9287293D02*
X15153158Y-9268246D01*
X15153158Y-9268246D02*
X15153158Y-9258722D01*
X15153158Y-9258722D02*
X15162682Y-9239674D01*
X15162682Y-9239674D02*
X15181730Y-9230150D01*
X15181730Y-9230150D02*
X15210301Y-9230150D01*
X15210301Y-9230150D02*
X15229349Y-9239674D01*
X15305539Y-9439674D02*
X15315063Y-9430150D01*
X15315063Y-9430150D02*
X15334111Y-9401579D01*
X15334111Y-9401579D02*
X15343634Y-9382531D01*
X15343634Y-9382531D02*
X15353158Y-9353960D01*
X15353158Y-9353960D02*
X15362682Y-9306341D01*
X15362682Y-9306341D02*
X15362682Y-9268246D01*
X15362682Y-9268246D02*
X15353158Y-9220627D01*
X15353158Y-9220627D02*
X15343634Y-9192055D01*
X15343634Y-9192055D02*
X15334111Y-9173008D01*
X15334111Y-9173008D02*
X15315063Y-9144436D01*
X15315063Y-9144436D02*
X15305539Y-9134912D01*
D12*
X10340000Y-9536000D02*
G75*
G02*
X10250000Y-9536000I-45000J0D01*
G01*
X10250000Y-9536000D02*
G75*
G02*
X10340000Y-9536000I45000J0D01*
G01*
D11*
X10638872Y-9427484D02*
X10657920Y-9427484D01*
X10657920Y-9427484D02*
X10676967Y-9437008D01*
X10676967Y-9437008D02*
X10686491Y-9446531D01*
X10686491Y-9446531D02*
X10696015Y-9465579D01*
X10696015Y-9465579D02*
X10705539Y-9503674D01*
X10705539Y-9503674D02*
X10705539Y-9551293D01*
X10705539Y-9551293D02*
X10696015Y-9589389D01*
X10696015Y-9589389D02*
X10686491Y-9608436D01*
X10686491Y-9608436D02*
X10676967Y-9617960D01*
X10676967Y-9617960D02*
X10657920Y-9627484D01*
X10657920Y-9627484D02*
X10638872Y-9627484D01*
X10638872Y-9627484D02*
X10619824Y-9617960D01*
X10619824Y-9617960D02*
X10610301Y-9608436D01*
X10610301Y-9608436D02*
X10600777Y-9589389D01*
X10600777Y-9589389D02*
X10591253Y-9551293D01*
X10591253Y-9551293D02*
X10591253Y-9503674D01*
X10591253Y-9503674D02*
X10600777Y-9465579D01*
X10600777Y-9465579D02*
X10610301Y-9446531D01*
X10610301Y-9446531D02*
X10619824Y-9437008D01*
X10619824Y-9437008D02*
X10638872Y-9427484D01*
X10791253Y-9608436D02*
X10800777Y-9617960D01*
X10800777Y-9617960D02*
X10791253Y-9627484D01*
X10791253Y-9627484D02*
X10781729Y-9617960D01*
X10781729Y-9617960D02*
X10791253Y-9608436D01*
X10791253Y-9608436D02*
X10791253Y-9627484D01*
X10896015Y-9627484D02*
X10934110Y-9627484D01*
X10934110Y-9627484D02*
X10953158Y-9617960D01*
X10953158Y-9617960D02*
X10962682Y-9608436D01*
X10962682Y-9608436D02*
X10981729Y-9579865D01*
X10981729Y-9579865D02*
X10991253Y-9541770D01*
X10991253Y-9541770D02*
X10991253Y-9465579D01*
X10991253Y-9465579D02*
X10981729Y-9446531D01*
X10981729Y-9446531D02*
X10972205Y-9437008D01*
X10972205Y-9437008D02*
X10953158Y-9427484D01*
X10953158Y-9427484D02*
X10915063Y-9427484D01*
X10915063Y-9427484D02*
X10896015Y-9437008D01*
X10896015Y-9437008D02*
X10886491Y-9446531D01*
X10886491Y-9446531D02*
X10876967Y-9465579D01*
X10876967Y-9465579D02*
X10876967Y-9513198D01*
X10876967Y-9513198D02*
X10886491Y-9532246D01*
X10886491Y-9532246D02*
X10896015Y-9541770D01*
X10896015Y-9541770D02*
X10915063Y-9551293D01*
X10915063Y-9551293D02*
X10953158Y-9551293D01*
X10953158Y-9551293D02*
X10972205Y-9541770D01*
X10972205Y-9541770D02*
X10981729Y-9532246D01*
X10981729Y-9532246D02*
X10991253Y-9513198D01*
X11115063Y-9427484D02*
X11134110Y-9427484D01*
X11134110Y-9427484D02*
X11153158Y-9437008D01*
X11153158Y-9437008D02*
X11162682Y-9446531D01*
X11162682Y-9446531D02*
X11172205Y-9465579D01*
X11172205Y-9465579D02*
X11181729Y-9503674D01*
X11181729Y-9503674D02*
X11181729Y-9551293D01*
X11181729Y-9551293D02*
X11172205Y-9589389D01*
X11172205Y-9589389D02*
X11162682Y-9608436D01*
X11162682Y-9608436D02*
X11153158Y-9617960D01*
X11153158Y-9617960D02*
X11134110Y-9627484D01*
X11134110Y-9627484D02*
X11115063Y-9627484D01*
X11115063Y-9627484D02*
X11096015Y-9617960D01*
X11096015Y-9617960D02*
X11086491Y-9608436D01*
X11086491Y-9608436D02*
X11076967Y-9589389D01*
X11076967Y-9589389D02*
X11067444Y-9551293D01*
X11067444Y-9551293D02*
X11067444Y-9503674D01*
X11067444Y-9503674D02*
X11076967Y-9465579D01*
X11076967Y-9465579D02*
X11086491Y-9446531D01*
X11086491Y-9446531D02*
X11096015Y-9437008D01*
X11096015Y-9437008D02*
X11115063Y-9427484D01*
X11305539Y-9427484D02*
X11324586Y-9427484D01*
X11324586Y-9427484D02*
X11343634Y-9437008D01*
X11343634Y-9437008D02*
X11353158Y-9446531D01*
X11353158Y-9446531D02*
X11362682Y-9465579D01*
X11362682Y-9465579D02*
X11372205Y-9503674D01*
X11372205Y-9503674D02*
X11372205Y-9551293D01*
X11372205Y-9551293D02*
X11362682Y-9589389D01*
X11362682Y-9589389D02*
X11353158Y-9608436D01*
X11353158Y-9608436D02*
X11343634Y-9617960D01*
X11343634Y-9617960D02*
X11324586Y-9627484D01*
X11324586Y-9627484D02*
X11305539Y-9627484D01*
X11305539Y-9627484D02*
X11286491Y-9617960D01*
X11286491Y-9617960D02*
X11276967Y-9608436D01*
X11276967Y-9608436D02*
X11267443Y-9589389D01*
X11267443Y-9589389D02*
X11257920Y-9551293D01*
X11257920Y-9551293D02*
X11257920Y-9503674D01*
X11257920Y-9503674D02*
X11267443Y-9465579D01*
X11267443Y-9465579D02*
X11276967Y-9446531D01*
X11276967Y-9446531D02*
X11286491Y-9437008D01*
X11286491Y-9437008D02*
X11305539Y-9427484D01*
X11457920Y-9627484D02*
X11457920Y-9494150D01*
X11457920Y-9513198D02*
X11467443Y-9503674D01*
X11467443Y-9503674D02*
X11486491Y-9494150D01*
X11486491Y-9494150D02*
X11515063Y-9494150D01*
X11515063Y-9494150D02*
X11534110Y-9503674D01*
X11534110Y-9503674D02*
X11543634Y-9522722D01*
X11543634Y-9522722D02*
X11543634Y-9627484D01*
X11543634Y-9522722D02*
X11553158Y-9503674D01*
X11553158Y-9503674D02*
X11572205Y-9494150D01*
X11572205Y-9494150D02*
X11600777Y-9494150D01*
X11600777Y-9494150D02*
X11619824Y-9503674D01*
X11619824Y-9503674D02*
X11629348Y-9522722D01*
X11629348Y-9522722D02*
X11629348Y-9627484D01*
X11724586Y-9627484D02*
X11724586Y-9494150D01*
X11724586Y-9513198D02*
X11734110Y-9503674D01*
X11734110Y-9503674D02*
X11753158Y-9494150D01*
X11753158Y-9494150D02*
X11781729Y-9494150D01*
X11781729Y-9494150D02*
X11800777Y-9503674D01*
X11800777Y-9503674D02*
X11810301Y-9522722D01*
X11810301Y-9522722D02*
X11810301Y-9627484D01*
X11810301Y-9522722D02*
X11819824Y-9503674D01*
X11819824Y-9503674D02*
X11838872Y-9494150D01*
X11838872Y-9494150D02*
X11867443Y-9494150D01*
X11867443Y-9494150D02*
X11886491Y-9503674D01*
X11886491Y-9503674D02*
X11896015Y-9522722D01*
X11896015Y-9522722D02*
X11896015Y-9627484D01*
X12286491Y-9417960D02*
X12115063Y-9675103D01*
X12543634Y-9427484D02*
X12562682Y-9427484D01*
X12562682Y-9427484D02*
X12581729Y-9437008D01*
X12581729Y-9437008D02*
X12591253Y-9446531D01*
X12591253Y-9446531D02*
X12600777Y-9465579D01*
X12600777Y-9465579D02*
X12610301Y-9503674D01*
X12610301Y-9503674D02*
X12610301Y-9551293D01*
X12610301Y-9551293D02*
X12600777Y-9589389D01*
X12600777Y-9589389D02*
X12591253Y-9608436D01*
X12591253Y-9608436D02*
X12581729Y-9617960D01*
X12581729Y-9617960D02*
X12562682Y-9627484D01*
X12562682Y-9627484D02*
X12543634Y-9627484D01*
X12543634Y-9627484D02*
X12524586Y-9617960D01*
X12524586Y-9617960D02*
X12515063Y-9608436D01*
X12515063Y-9608436D02*
X12505539Y-9589389D01*
X12505539Y-9589389D02*
X12496015Y-9551293D01*
X12496015Y-9551293D02*
X12496015Y-9503674D01*
X12496015Y-9503674D02*
X12505539Y-9465579D01*
X12505539Y-9465579D02*
X12515063Y-9446531D01*
X12515063Y-9446531D02*
X12524586Y-9437008D01*
X12524586Y-9437008D02*
X12543634Y-9427484D01*
X12696015Y-9608436D02*
X12705539Y-9617960D01*
X12705539Y-9617960D02*
X12696015Y-9627484D01*
X12696015Y-9627484D02*
X12686491Y-9617960D01*
X12686491Y-9617960D02*
X12696015Y-9608436D01*
X12696015Y-9608436D02*
X12696015Y-9627484D01*
X12829348Y-9427484D02*
X12848396Y-9427484D01*
X12848396Y-9427484D02*
X12867444Y-9437008D01*
X12867444Y-9437008D02*
X12876967Y-9446531D01*
X12876967Y-9446531D02*
X12886491Y-9465579D01*
X12886491Y-9465579D02*
X12896015Y-9503674D01*
X12896015Y-9503674D02*
X12896015Y-9551293D01*
X12896015Y-9551293D02*
X12886491Y-9589389D01*
X12886491Y-9589389D02*
X12876967Y-9608436D01*
X12876967Y-9608436D02*
X12867444Y-9617960D01*
X12867444Y-9617960D02*
X12848396Y-9627484D01*
X12848396Y-9627484D02*
X12829348Y-9627484D01*
X12829348Y-9627484D02*
X12810301Y-9617960D01*
X12810301Y-9617960D02*
X12800777Y-9608436D01*
X12800777Y-9608436D02*
X12791253Y-9589389D01*
X12791253Y-9589389D02*
X12781729Y-9551293D01*
X12781729Y-9551293D02*
X12781729Y-9503674D01*
X12781729Y-9503674D02*
X12791253Y-9465579D01*
X12791253Y-9465579D02*
X12800777Y-9446531D01*
X12800777Y-9446531D02*
X12810301Y-9437008D01*
X12810301Y-9437008D02*
X12829348Y-9427484D01*
X12962682Y-9427484D02*
X13086491Y-9427484D01*
X13086491Y-9427484D02*
X13019825Y-9503674D01*
X13019825Y-9503674D02*
X13048396Y-9503674D01*
X13048396Y-9503674D02*
X13067444Y-9513198D01*
X13067444Y-9513198D02*
X13076967Y-9522722D01*
X13076967Y-9522722D02*
X13086491Y-9541770D01*
X13086491Y-9541770D02*
X13086491Y-9589389D01*
X13086491Y-9589389D02*
X13076967Y-9608436D01*
X13076967Y-9608436D02*
X13067444Y-9617960D01*
X13067444Y-9617960D02*
X13048396Y-9627484D01*
X13048396Y-9627484D02*
X12991253Y-9627484D01*
X12991253Y-9627484D02*
X12972206Y-9617960D01*
X12972206Y-9617960D02*
X12962682Y-9608436D01*
X13267444Y-9427484D02*
X13172206Y-9427484D01*
X13172206Y-9427484D02*
X13162682Y-9522722D01*
X13162682Y-9522722D02*
X13172206Y-9513198D01*
X13172206Y-9513198D02*
X13191253Y-9503674D01*
X13191253Y-9503674D02*
X13238872Y-9503674D01*
X13238872Y-9503674D02*
X13257920Y-9513198D01*
X13257920Y-9513198D02*
X13267444Y-9522722D01*
X13267444Y-9522722D02*
X13276967Y-9541770D01*
X13276967Y-9541770D02*
X13276967Y-9589389D01*
X13276967Y-9589389D02*
X13267444Y-9608436D01*
X13267444Y-9608436D02*
X13257920Y-9617960D01*
X13257920Y-9617960D02*
X13238872Y-9627484D01*
X13238872Y-9627484D02*
X13191253Y-9627484D01*
X13191253Y-9627484D02*
X13172206Y-9617960D01*
X13172206Y-9617960D02*
X13162682Y-9608436D01*
X13448396Y-9494150D02*
X13448396Y-9627484D01*
X13400777Y-9417960D02*
X13353158Y-9560817D01*
X13353158Y-9560817D02*
X13476967Y-9560817D01*
X13543634Y-9427484D02*
X13543634Y-9465579D01*
X13619825Y-9427484D02*
X13619825Y-9465579D01*
X13915063Y-9703674D02*
X13905539Y-9694150D01*
X13905539Y-9694150D02*
X13886491Y-9665579D01*
X13886491Y-9665579D02*
X13876968Y-9646531D01*
X13876968Y-9646531D02*
X13867444Y-9617960D01*
X13867444Y-9617960D02*
X13857920Y-9570341D01*
X13857920Y-9570341D02*
X13857920Y-9532246D01*
X13857920Y-9532246D02*
X13867444Y-9484627D01*
X13867444Y-9484627D02*
X13876968Y-9456055D01*
X13876968Y-9456055D02*
X13886491Y-9437008D01*
X13886491Y-9437008D02*
X13905539Y-9408436D01*
X13905539Y-9408436D02*
X13915063Y-9398912D01*
X13981729Y-9446531D02*
X13991253Y-9437008D01*
X13991253Y-9437008D02*
X14010301Y-9427484D01*
X14010301Y-9427484D02*
X14057920Y-9427484D01*
X14057920Y-9427484D02*
X14076968Y-9437008D01*
X14076968Y-9437008D02*
X14086491Y-9446531D01*
X14086491Y-9446531D02*
X14096015Y-9465579D01*
X14096015Y-9465579D02*
X14096015Y-9484627D01*
X14096015Y-9484627D02*
X14086491Y-9513198D01*
X14086491Y-9513198D02*
X13972206Y-9627484D01*
X13972206Y-9627484D02*
X14096015Y-9627484D01*
X14334110Y-9627484D02*
X14334110Y-9427484D01*
X14419825Y-9627484D02*
X14419825Y-9522722D01*
X14419825Y-9522722D02*
X14410301Y-9503674D01*
X14410301Y-9503674D02*
X14391253Y-9494150D01*
X14391253Y-9494150D02*
X14362682Y-9494150D01*
X14362682Y-9494150D02*
X14343634Y-9503674D01*
X14343634Y-9503674D02*
X14334110Y-9513198D01*
X14543634Y-9627484D02*
X14524587Y-9617960D01*
X14524587Y-9617960D02*
X14515063Y-9608436D01*
X14515063Y-9608436D02*
X14505539Y-9589389D01*
X14505539Y-9589389D02*
X14505539Y-9532246D01*
X14505539Y-9532246D02*
X14515063Y-9513198D01*
X14515063Y-9513198D02*
X14524587Y-9503674D01*
X14524587Y-9503674D02*
X14543634Y-9494150D01*
X14543634Y-9494150D02*
X14572206Y-9494150D01*
X14572206Y-9494150D02*
X14591253Y-9503674D01*
X14591253Y-9503674D02*
X14600777Y-9513198D01*
X14600777Y-9513198D02*
X14610301Y-9532246D01*
X14610301Y-9532246D02*
X14610301Y-9589389D01*
X14610301Y-9589389D02*
X14600777Y-9608436D01*
X14600777Y-9608436D02*
X14591253Y-9617960D01*
X14591253Y-9617960D02*
X14572206Y-9627484D01*
X14572206Y-9627484D02*
X14543634Y-9627484D01*
X14724587Y-9627484D02*
X14705539Y-9617960D01*
X14705539Y-9617960D02*
X14696015Y-9598912D01*
X14696015Y-9598912D02*
X14696015Y-9427484D01*
X14876968Y-9617960D02*
X14857920Y-9627484D01*
X14857920Y-9627484D02*
X14819825Y-9627484D01*
X14819825Y-9627484D02*
X14800777Y-9617960D01*
X14800777Y-9617960D02*
X14791253Y-9598912D01*
X14791253Y-9598912D02*
X14791253Y-9522722D01*
X14791253Y-9522722D02*
X14800777Y-9503674D01*
X14800777Y-9503674D02*
X14819825Y-9494150D01*
X14819825Y-9494150D02*
X14857920Y-9494150D01*
X14857920Y-9494150D02*
X14876968Y-9503674D01*
X14876968Y-9503674D02*
X14886491Y-9522722D01*
X14886491Y-9522722D02*
X14886491Y-9541770D01*
X14886491Y-9541770D02*
X14791253Y-9560817D01*
X14962682Y-9617960D02*
X14981730Y-9627484D01*
X14981730Y-9627484D02*
X15019825Y-9627484D01*
X15019825Y-9627484D02*
X15038872Y-9617960D01*
X15038872Y-9617960D02*
X15048396Y-9598912D01*
X15048396Y-9598912D02*
X15048396Y-9589389D01*
X15048396Y-9589389D02*
X15038872Y-9570341D01*
X15038872Y-9570341D02*
X15019825Y-9560817D01*
X15019825Y-9560817D02*
X14991253Y-9560817D01*
X14991253Y-9560817D02*
X14972206Y-9551293D01*
X14972206Y-9551293D02*
X14962682Y-9532246D01*
X14962682Y-9532246D02*
X14962682Y-9522722D01*
X14962682Y-9522722D02*
X14972206Y-9503674D01*
X14972206Y-9503674D02*
X14991253Y-9494150D01*
X14991253Y-9494150D02*
X15019825Y-9494150D01*
X15019825Y-9494150D02*
X15038872Y-9503674D01*
X15115063Y-9703674D02*
X15124587Y-9694150D01*
X15124587Y-9694150D02*
X15143634Y-9665579D01*
X15143634Y-9665579D02*
X15153158Y-9646531D01*
X15153158Y-9646531D02*
X15162682Y-9617960D01*
X15162682Y-9617960D02*
X15172206Y-9570341D01*
X15172206Y-9570341D02*
X15172206Y-9532246D01*
X15172206Y-9532246D02*
X15162682Y-9484627D01*
X15162682Y-9484627D02*
X15153158Y-9456055D01*
X15153158Y-9456055D02*
X15143634Y-9437008D01*
X15143634Y-9437008D02*
X15124587Y-9408436D01*
X15124587Y-9408436D02*
X15115063Y-9398912D01*
D12*
X10290000Y-9750000D02*
X10290000Y-9850000D01*
X10240000Y-9800000D02*
X10340000Y-9800000D01*
D11*
X10705539Y-9891484D02*
X10591253Y-9891484D01*
X10648396Y-9891484D02*
X10648396Y-9691484D01*
X10648396Y-9691484D02*
X10629348Y-9720055D01*
X10629348Y-9720055D02*
X10610301Y-9739103D01*
X10610301Y-9739103D02*
X10591253Y-9748627D01*
X10791253Y-9872436D02*
X10800777Y-9881960D01*
X10800777Y-9881960D02*
X10791253Y-9891484D01*
X10791253Y-9891484D02*
X10781729Y-9881960D01*
X10781729Y-9881960D02*
X10791253Y-9872436D01*
X10791253Y-9872436D02*
X10791253Y-9891484D01*
X10924586Y-9691484D02*
X10943634Y-9691484D01*
X10943634Y-9691484D02*
X10962682Y-9701008D01*
X10962682Y-9701008D02*
X10972205Y-9710531D01*
X10972205Y-9710531D02*
X10981729Y-9729579D01*
X10981729Y-9729579D02*
X10991253Y-9767674D01*
X10991253Y-9767674D02*
X10991253Y-9815293D01*
X10991253Y-9815293D02*
X10981729Y-9853389D01*
X10981729Y-9853389D02*
X10972205Y-9872436D01*
X10972205Y-9872436D02*
X10962682Y-9881960D01*
X10962682Y-9881960D02*
X10943634Y-9891484D01*
X10943634Y-9891484D02*
X10924586Y-9891484D01*
X10924586Y-9891484D02*
X10905539Y-9881960D01*
X10905539Y-9881960D02*
X10896015Y-9872436D01*
X10896015Y-9872436D02*
X10886491Y-9853389D01*
X10886491Y-9853389D02*
X10876967Y-9815293D01*
X10876967Y-9815293D02*
X10876967Y-9767674D01*
X10876967Y-9767674D02*
X10886491Y-9729579D01*
X10886491Y-9729579D02*
X10896015Y-9710531D01*
X10896015Y-9710531D02*
X10905539Y-9701008D01*
X10905539Y-9701008D02*
X10924586Y-9691484D01*
X11115063Y-9691484D02*
X11134110Y-9691484D01*
X11134110Y-9691484D02*
X11153158Y-9701008D01*
X11153158Y-9701008D02*
X11162682Y-9710531D01*
X11162682Y-9710531D02*
X11172205Y-9729579D01*
X11172205Y-9729579D02*
X11181729Y-9767674D01*
X11181729Y-9767674D02*
X11181729Y-9815293D01*
X11181729Y-9815293D02*
X11172205Y-9853389D01*
X11172205Y-9853389D02*
X11162682Y-9872436D01*
X11162682Y-9872436D02*
X11153158Y-9881960D01*
X11153158Y-9881960D02*
X11134110Y-9891484D01*
X11134110Y-9891484D02*
X11115063Y-9891484D01*
X11115063Y-9891484D02*
X11096015Y-9881960D01*
X11096015Y-9881960D02*
X11086491Y-9872436D01*
X11086491Y-9872436D02*
X11076967Y-9853389D01*
X11076967Y-9853389D02*
X11067444Y-9815293D01*
X11067444Y-9815293D02*
X11067444Y-9767674D01*
X11067444Y-9767674D02*
X11076967Y-9729579D01*
X11076967Y-9729579D02*
X11086491Y-9710531D01*
X11086491Y-9710531D02*
X11096015Y-9701008D01*
X11096015Y-9701008D02*
X11115063Y-9691484D01*
X11305539Y-9691484D02*
X11324586Y-9691484D01*
X11324586Y-9691484D02*
X11343634Y-9701008D01*
X11343634Y-9701008D02*
X11353158Y-9710531D01*
X11353158Y-9710531D02*
X11362682Y-9729579D01*
X11362682Y-9729579D02*
X11372205Y-9767674D01*
X11372205Y-9767674D02*
X11372205Y-9815293D01*
X11372205Y-9815293D02*
X11362682Y-9853389D01*
X11362682Y-9853389D02*
X11353158Y-9872436D01*
X11353158Y-9872436D02*
X11343634Y-9881960D01*
X11343634Y-9881960D02*
X11324586Y-9891484D01*
X11324586Y-9891484D02*
X11305539Y-9891484D01*
X11305539Y-9891484D02*
X11286491Y-9881960D01*
X11286491Y-9881960D02*
X11276967Y-9872436D01*
X11276967Y-9872436D02*
X11267443Y-9853389D01*
X11267443Y-9853389D02*
X11257920Y-9815293D01*
X11257920Y-9815293D02*
X11257920Y-9767674D01*
X11257920Y-9767674D02*
X11267443Y-9729579D01*
X11267443Y-9729579D02*
X11276967Y-9710531D01*
X11276967Y-9710531D02*
X11286491Y-9701008D01*
X11286491Y-9701008D02*
X11305539Y-9691484D01*
X11457920Y-9891484D02*
X11457920Y-9758150D01*
X11457920Y-9777198D02*
X11467443Y-9767674D01*
X11467443Y-9767674D02*
X11486491Y-9758150D01*
X11486491Y-9758150D02*
X11515063Y-9758150D01*
X11515063Y-9758150D02*
X11534110Y-9767674D01*
X11534110Y-9767674D02*
X11543634Y-9786722D01*
X11543634Y-9786722D02*
X11543634Y-9891484D01*
X11543634Y-9786722D02*
X11553158Y-9767674D01*
X11553158Y-9767674D02*
X11572205Y-9758150D01*
X11572205Y-9758150D02*
X11600777Y-9758150D01*
X11600777Y-9758150D02*
X11619824Y-9767674D01*
X11619824Y-9767674D02*
X11629348Y-9786722D01*
X11629348Y-9786722D02*
X11629348Y-9891484D01*
X11724586Y-9891484D02*
X11724586Y-9758150D01*
X11724586Y-9777198D02*
X11734110Y-9767674D01*
X11734110Y-9767674D02*
X11753158Y-9758150D01*
X11753158Y-9758150D02*
X11781729Y-9758150D01*
X11781729Y-9758150D02*
X11800777Y-9767674D01*
X11800777Y-9767674D02*
X11810301Y-9786722D01*
X11810301Y-9786722D02*
X11810301Y-9891484D01*
X11810301Y-9786722D02*
X11819824Y-9767674D01*
X11819824Y-9767674D02*
X11838872Y-9758150D01*
X11838872Y-9758150D02*
X11867443Y-9758150D01*
X11867443Y-9758150D02*
X11886491Y-9767674D01*
X11886491Y-9767674D02*
X11896015Y-9786722D01*
X11896015Y-9786722D02*
X11896015Y-9891484D01*
X12286491Y-9681960D02*
X12115063Y-9939103D01*
X12543634Y-9691484D02*
X12562682Y-9691484D01*
X12562682Y-9691484D02*
X12581729Y-9701008D01*
X12581729Y-9701008D02*
X12591253Y-9710531D01*
X12591253Y-9710531D02*
X12600777Y-9729579D01*
X12600777Y-9729579D02*
X12610301Y-9767674D01*
X12610301Y-9767674D02*
X12610301Y-9815293D01*
X12610301Y-9815293D02*
X12600777Y-9853389D01*
X12600777Y-9853389D02*
X12591253Y-9872436D01*
X12591253Y-9872436D02*
X12581729Y-9881960D01*
X12581729Y-9881960D02*
X12562682Y-9891484D01*
X12562682Y-9891484D02*
X12543634Y-9891484D01*
X12543634Y-9891484D02*
X12524586Y-9881960D01*
X12524586Y-9881960D02*
X12515063Y-9872436D01*
X12515063Y-9872436D02*
X12505539Y-9853389D01*
X12505539Y-9853389D02*
X12496015Y-9815293D01*
X12496015Y-9815293D02*
X12496015Y-9767674D01*
X12496015Y-9767674D02*
X12505539Y-9729579D01*
X12505539Y-9729579D02*
X12515063Y-9710531D01*
X12515063Y-9710531D02*
X12524586Y-9701008D01*
X12524586Y-9701008D02*
X12543634Y-9691484D01*
X12696015Y-9872436D02*
X12705539Y-9881960D01*
X12705539Y-9881960D02*
X12696015Y-9891484D01*
X12696015Y-9891484D02*
X12686491Y-9881960D01*
X12686491Y-9881960D02*
X12696015Y-9872436D01*
X12696015Y-9872436D02*
X12696015Y-9891484D01*
X12829348Y-9691484D02*
X12848396Y-9691484D01*
X12848396Y-9691484D02*
X12867444Y-9701008D01*
X12867444Y-9701008D02*
X12876967Y-9710531D01*
X12876967Y-9710531D02*
X12886491Y-9729579D01*
X12886491Y-9729579D02*
X12896015Y-9767674D01*
X12896015Y-9767674D02*
X12896015Y-9815293D01*
X12896015Y-9815293D02*
X12886491Y-9853389D01*
X12886491Y-9853389D02*
X12876967Y-9872436D01*
X12876967Y-9872436D02*
X12867444Y-9881960D01*
X12867444Y-9881960D02*
X12848396Y-9891484D01*
X12848396Y-9891484D02*
X12829348Y-9891484D01*
X12829348Y-9891484D02*
X12810301Y-9881960D01*
X12810301Y-9881960D02*
X12800777Y-9872436D01*
X12800777Y-9872436D02*
X12791253Y-9853389D01*
X12791253Y-9853389D02*
X12781729Y-9815293D01*
X12781729Y-9815293D02*
X12781729Y-9767674D01*
X12781729Y-9767674D02*
X12791253Y-9729579D01*
X12791253Y-9729579D02*
X12800777Y-9710531D01*
X12800777Y-9710531D02*
X12810301Y-9701008D01*
X12810301Y-9701008D02*
X12829348Y-9691484D01*
X12962682Y-9691484D02*
X13086491Y-9691484D01*
X13086491Y-9691484D02*
X13019825Y-9767674D01*
X13019825Y-9767674D02*
X13048396Y-9767674D01*
X13048396Y-9767674D02*
X13067444Y-9777198D01*
X13067444Y-9777198D02*
X13076967Y-9786722D01*
X13076967Y-9786722D02*
X13086491Y-9805770D01*
X13086491Y-9805770D02*
X13086491Y-9853389D01*
X13086491Y-9853389D02*
X13076967Y-9872436D01*
X13076967Y-9872436D02*
X13067444Y-9881960D01*
X13067444Y-9881960D02*
X13048396Y-9891484D01*
X13048396Y-9891484D02*
X12991253Y-9891484D01*
X12991253Y-9891484D02*
X12972206Y-9881960D01*
X12972206Y-9881960D02*
X12962682Y-9872436D01*
X13181729Y-9891484D02*
X13219825Y-9891484D01*
X13219825Y-9891484D02*
X13238872Y-9881960D01*
X13238872Y-9881960D02*
X13248396Y-9872436D01*
X13248396Y-9872436D02*
X13267444Y-9843865D01*
X13267444Y-9843865D02*
X13276967Y-9805770D01*
X13276967Y-9805770D02*
X13276967Y-9729579D01*
X13276967Y-9729579D02*
X13267444Y-9710531D01*
X13267444Y-9710531D02*
X13257920Y-9701008D01*
X13257920Y-9701008D02*
X13238872Y-9691484D01*
X13238872Y-9691484D02*
X13200777Y-9691484D01*
X13200777Y-9691484D02*
X13181729Y-9701008D01*
X13181729Y-9701008D02*
X13172206Y-9710531D01*
X13172206Y-9710531D02*
X13162682Y-9729579D01*
X13162682Y-9729579D02*
X13162682Y-9777198D01*
X13162682Y-9777198D02*
X13172206Y-9796246D01*
X13172206Y-9796246D02*
X13181729Y-9805770D01*
X13181729Y-9805770D02*
X13200777Y-9815293D01*
X13200777Y-9815293D02*
X13238872Y-9815293D01*
X13238872Y-9815293D02*
X13257920Y-9805770D01*
X13257920Y-9805770D02*
X13267444Y-9796246D01*
X13267444Y-9796246D02*
X13276967Y-9777198D01*
X13448396Y-9758150D02*
X13448396Y-9891484D01*
X13400777Y-9681960D02*
X13353158Y-9824817D01*
X13353158Y-9824817D02*
X13476967Y-9824817D01*
X13543634Y-9691484D02*
X13543634Y-9729579D01*
X13619825Y-9691484D02*
X13619825Y-9729579D01*
X13915063Y-9967674D02*
X13905539Y-9958150D01*
X13905539Y-9958150D02*
X13886491Y-9929579D01*
X13886491Y-9929579D02*
X13876968Y-9910531D01*
X13876968Y-9910531D02*
X13867444Y-9881960D01*
X13867444Y-9881960D02*
X13857920Y-9834341D01*
X13857920Y-9834341D02*
X13857920Y-9796246D01*
X13857920Y-9796246D02*
X13867444Y-9748627D01*
X13867444Y-9748627D02*
X13876968Y-9720055D01*
X13876968Y-9720055D02*
X13886491Y-9701008D01*
X13886491Y-9701008D02*
X13905539Y-9672436D01*
X13905539Y-9672436D02*
X13915063Y-9662912D01*
X14076968Y-9691484D02*
X14038872Y-9691484D01*
X14038872Y-9691484D02*
X14019825Y-9701008D01*
X14019825Y-9701008D02*
X14010301Y-9710531D01*
X14010301Y-9710531D02*
X13991253Y-9739103D01*
X13991253Y-9739103D02*
X13981729Y-9777198D01*
X13981729Y-9777198D02*
X13981729Y-9853389D01*
X13981729Y-9853389D02*
X13991253Y-9872436D01*
X13991253Y-9872436D02*
X14000777Y-9881960D01*
X14000777Y-9881960D02*
X14019825Y-9891484D01*
X14019825Y-9891484D02*
X14057920Y-9891484D01*
X14057920Y-9891484D02*
X14076968Y-9881960D01*
X14076968Y-9881960D02*
X14086491Y-9872436D01*
X14086491Y-9872436D02*
X14096015Y-9853389D01*
X14096015Y-9853389D02*
X14096015Y-9805770D01*
X14096015Y-9805770D02*
X14086491Y-9786722D01*
X14086491Y-9786722D02*
X14076968Y-9777198D01*
X14076968Y-9777198D02*
X14057920Y-9767674D01*
X14057920Y-9767674D02*
X14019825Y-9767674D01*
X14019825Y-9767674D02*
X14000777Y-9777198D01*
X14000777Y-9777198D02*
X13991253Y-9786722D01*
X13991253Y-9786722D02*
X13981729Y-9805770D01*
X14334110Y-9891484D02*
X14334110Y-9691484D01*
X14419825Y-9891484D02*
X14419825Y-9786722D01*
X14419825Y-9786722D02*
X14410301Y-9767674D01*
X14410301Y-9767674D02*
X14391253Y-9758150D01*
X14391253Y-9758150D02*
X14362682Y-9758150D01*
X14362682Y-9758150D02*
X14343634Y-9767674D01*
X14343634Y-9767674D02*
X14334110Y-9777198D01*
X14543634Y-9891484D02*
X14524587Y-9881960D01*
X14524587Y-9881960D02*
X14515063Y-9872436D01*
X14515063Y-9872436D02*
X14505539Y-9853389D01*
X14505539Y-9853389D02*
X14505539Y-9796246D01*
X14505539Y-9796246D02*
X14515063Y-9777198D01*
X14515063Y-9777198D02*
X14524587Y-9767674D01*
X14524587Y-9767674D02*
X14543634Y-9758150D01*
X14543634Y-9758150D02*
X14572206Y-9758150D01*
X14572206Y-9758150D02*
X14591253Y-9767674D01*
X14591253Y-9767674D02*
X14600777Y-9777198D01*
X14600777Y-9777198D02*
X14610301Y-9796246D01*
X14610301Y-9796246D02*
X14610301Y-9853389D01*
X14610301Y-9853389D02*
X14600777Y-9872436D01*
X14600777Y-9872436D02*
X14591253Y-9881960D01*
X14591253Y-9881960D02*
X14572206Y-9891484D01*
X14572206Y-9891484D02*
X14543634Y-9891484D01*
X14724587Y-9891484D02*
X14705539Y-9881960D01*
X14705539Y-9881960D02*
X14696015Y-9862912D01*
X14696015Y-9862912D02*
X14696015Y-9691484D01*
X14876968Y-9881960D02*
X14857920Y-9891484D01*
X14857920Y-9891484D02*
X14819825Y-9891484D01*
X14819825Y-9891484D02*
X14800777Y-9881960D01*
X14800777Y-9881960D02*
X14791253Y-9862912D01*
X14791253Y-9862912D02*
X14791253Y-9786722D01*
X14791253Y-9786722D02*
X14800777Y-9767674D01*
X14800777Y-9767674D02*
X14819825Y-9758150D01*
X14819825Y-9758150D02*
X14857920Y-9758150D01*
X14857920Y-9758150D02*
X14876968Y-9767674D01*
X14876968Y-9767674D02*
X14886491Y-9786722D01*
X14886491Y-9786722D02*
X14886491Y-9805770D01*
X14886491Y-9805770D02*
X14791253Y-9824817D01*
X14962682Y-9881960D02*
X14981730Y-9891484D01*
X14981730Y-9891484D02*
X15019825Y-9891484D01*
X15019825Y-9891484D02*
X15038872Y-9881960D01*
X15038872Y-9881960D02*
X15048396Y-9862912D01*
X15048396Y-9862912D02*
X15048396Y-9853389D01*
X15048396Y-9853389D02*
X15038872Y-9834341D01*
X15038872Y-9834341D02*
X15019825Y-9824817D01*
X15019825Y-9824817D02*
X14991253Y-9824817D01*
X14991253Y-9824817D02*
X14972206Y-9815293D01*
X14972206Y-9815293D02*
X14962682Y-9796246D01*
X14962682Y-9796246D02*
X14962682Y-9786722D01*
X14962682Y-9786722D02*
X14972206Y-9767674D01*
X14972206Y-9767674D02*
X14991253Y-9758150D01*
X14991253Y-9758150D02*
X15019825Y-9758150D01*
X15019825Y-9758150D02*
X15038872Y-9767674D01*
X15115063Y-9967674D02*
X15124587Y-9958150D01*
X15124587Y-9958150D02*
X15143634Y-9929579D01*
X15143634Y-9929579D02*
X15153158Y-9910531D01*
X15153158Y-9910531D02*
X15162682Y-9881960D01*
X15162682Y-9881960D02*
X15172206Y-9834341D01*
X15172206Y-9834341D02*
X15172206Y-9796246D01*
X15172206Y-9796246D02*
X15162682Y-9748627D01*
X15162682Y-9748627D02*
X15153158Y-9720055D01*
X15153158Y-9720055D02*
X15143634Y-9701008D01*
X15143634Y-9701008D02*
X15124587Y-9672436D01*
X15124587Y-9672436D02*
X15115063Y-9662912D01*
M02*
