%TF.GenerationSoftware,KiCad,Pcbnew,9.0.0*%
%TF.CreationDate,2025-03-07T16:35:28+08:00*%
%TF.ProjectId,Esp32InfraredController,45737033-3249-46e6-9672-61726564436f,rev?*%
%TF.SameCoordinates,Original*%
%TF.FileFunction,Soldermask,Bot*%
%TF.FilePolarity,Negative*%
%FSLAX46Y46*%
G04 Gerber Fmt 4.6, Leading zero omitted, Abs format (unit mm)*
G04 Created by KiCad (PCBNEW 9.0.0) date 2025-03-07 16:35:28*
%MOMM*%
%LPD*%
G01*
G04 APERTURE LIST*
G04 Aperture macros list*
%AMRoundRect*
0 Rectangle with rounded corners*
0 $1 Rounding radius*
0 $2 $3 $4 $5 $6 $7 $8 $9 X,Y pos of 4 corners*
0 Add a 4 corners polygon primitive as box body*
4,1,4,$2,$3,$4,$5,$6,$7,$8,$9,$2,$3,0*
0 Add four circle primitives for the rounded corners*
1,1,$1+$1,$2,$3*
1,1,$1+$1,$4,$5*
1,1,$1+$1,$6,$7*
1,1,$1+$1,$8,$9*
0 Add four rect primitives between the rounded corners*
20,1,$1+$1,$2,$3,$4,$5,0*
20,1,$1+$1,$4,$5,$6,$7,0*
20,1,$1+$1,$6,$7,$8,$9,0*
20,1,$1+$1,$8,$9,$2,$3,0*%
G04 Aperture macros list end*
%ADD10R,1.700000X1.700000*%
%ADD11O,1.700000X1.700000*%
%ADD12R,1.800000X1.800000*%
%ADD13C,1.800000*%
%ADD14R,1.000000X3.000000*%
%TA.AperFunction,ComponentPad*%
%ADD15R,1.700000X1.700000*%
%TD*%
%TA.AperFunction,ComponentPad*%
%ADD16O,1.700000X1.700000*%
%TD*%
%TA.AperFunction,ComponentPad*%
%ADD17R,1.800000X1.800000*%
%TD*%
%TA.AperFunction,ComponentPad*%
%ADD18C,1.800000*%
%TD*%
%TA.AperFunction,SMDPad,CuDef*%
%ADD19R,1.000000X3.000000*%
%TD*%
%TA.AperFunction,ViaPad*%
%ADD20C,0.600000*%
%TD*%
%TA.AperFunction,Conductor*%
%ADD21C,0.200000*%
%TD*%
%ADD22C,0.150000*%
%ADD23C,0.120000*%
%TA.AperFunction,SMDPad,CuDef*%
%ADD24RoundRect,0.200000X-0.275000X0.200000X-0.275000X-0.200000X0.275000X-0.200000X0.275000X0.200000X0*%
%TD*%
%TA.AperFunction,SMDPad,CuDef*%
%ADD25R,3.025000X1.524000*%
%TD*%
%TA.AperFunction,SMDPad,CuDef*%
%ADD26RoundRect,0.150000X0.150000X-0.587500X0.150000X0.587500X-0.150000X0.587500X-0.150000X-0.587500X0*%
%TD*%
%ADD27RoundRect,0.200000X-0.275000X0.200000X-0.275000X-0.200000X0.275000X-0.200000X0.275000X0.200000X0*%
%ADD28RoundRect,0.102000X-1.512500X-0.762000X1.512500X-0.762000X1.512500X0.762000X-1.512500X0.762000X0*%
%ADD29RoundRect,0.150000X0.150000X-0.587500X0.150000X0.587500X-0.150000X0.587500X-0.150000X-0.587500X0*%
%ADD30R,3.025000X1.524000*%
%ADD31C,0.062500*%
%ADD32C,0.050000*%
%ADD33C,0.127000*%
%TA.AperFunction,Profile*%
%ADD34C,0.050000*%
%TD*%
%TA.AperFunction,Profile*%
%ADD35C,0.200000*%
%TD*%
G04 APERTURE END LIST*
D10*
%TO.C,J3*%
X129200000Y-57980000D03*
D11*
X129200000Y-60520000D03*
X129200000Y-63060000D03*
X129200000Y-65600000D03*
%TD*%
D10*
%TO.C,J2*%
X105600000Y-65675000D03*
D11*
X105600000Y-63135000D03*
%TD*%
D12*
%TO.C,D1*%
X115730000Y-84000000D03*
D13*
X118270000Y-84000000D03*
%TD*%
D14*
%TO.C,J1*%
X122540000Y-47000000D03*
X122540000Y-52040000D03*
X120000000Y-47000000D03*
X120000000Y-52040000D03*
X117460000Y-47000000D03*
X117460000Y-52040000D03*
X114920000Y-47000000D03*
X114920000Y-52040000D03*
X112380000Y-47000000D03*
X112380000Y-52040000D03*
%TD*%
D15*
%TO.P,J3,1,Pin_1*%
%TO.N,GNDREF*%
X129200000Y-57980000D03*
D16*
%TO.P,J3,2,Pin_2*%
%TO.N,/3.3V*%
X129200000Y-60520000D03*
%TO.P,J3,3,Pin_3*%
%TO.N,/GPIO1*%
X129200000Y-63060000D03*
%TO.P,J3,4,Pin_4*%
%TO.N,/GPIO0*%
X129200000Y-65600000D03*
%TD*%
D15*
%TO.P,J2,1,Pin_1*%
%TO.N,Net-(J2-Pin_1)*%
X105600000Y-65675000D03*
D16*
%TO.P,J2,2,Pin_2*%
%TO.N,Net-(J2-Pin_2)*%
X105600000Y-63135000D03*
%TD*%
D17*
%TO.P,D1,1,K*%
%TO.N,Net-(D1-K)*%
X115730000Y-84000000D03*
D18*
%TO.P,D1,2,A*%
%TO.N,Net-(D1-A)*%
X118270000Y-84000000D03*
%TD*%
D19*
%TO.P,J1,1,Pin_1*%
%TO.N,GNDREF*%
X122540000Y-47000000D03*
%TO.P,J1,2,Pin_2*%
%TO.N,/3.3V*%
X122540000Y-52040000D03*
%TO.P,J1,3,Pin_3*%
%TO.N,/GPIO4*%
X120000000Y-47000000D03*
%TO.P,J1,4,Pin_4*%
%TO.N,/GPIO3*%
X120000000Y-52040000D03*
%TO.P,J1,5,Pin_5*%
%TO.N,/GPIO2*%
X117460000Y-47000000D03*
%TO.P,J1,6,Pin_6*%
%TO.N,/GPIO9*%
X117460000Y-52040000D03*
%TO.P,J1,7,Pin_7*%
%TO.N,/GPIO6*%
X114920000Y-47000000D03*
%TO.P,J1,8,Pin_8*%
%TO.N,/GPIO8*%
X114920000Y-52040000D03*
%TO.P,J1,9,Pin_9*%
%TO.N,/GPIO5*%
X112380000Y-47000000D03*
%TO.P,J1,10,Pin_10*%
%TO.N,/GPIO7*%
X112380000Y-52040000D03*
%TD*%
D20*
%TO.N,/GPIO9*%
X117500000Y-52000000D03*
%TO.N,Net-(J2-Pin_2)*%
X109515000Y-63240000D03*
%TO.N,Net-(J2-Pin_1)*%
X109515000Y-65780000D03*
%TO.N,GNDREF*%
X125485000Y-50540000D03*
X116450000Y-72875000D03*
X122540000Y-47000000D03*
%TO.N,/3.3V*%
X118500000Y-71500000D03*
X125485000Y-53080000D03*
X122540000Y-52040000D03*
%TO.N,/GPIO3*%
X120000000Y-52000000D03*
%TO.N,/GPIO4*%
X120000000Y-47000000D03*
%TO.N,/GPIO2*%
X117500000Y-47000000D03*
%TO.N,/GPIO7*%
X112380000Y-52040000D03*
%TO.N,/GPIO8*%
X114920000Y-52040000D03*
%TO.N,/GPIO6*%
X114920000Y-47000000D03*
%TO.N,/GPIO5*%
X112380000Y-47000000D03*
%TO.N,/GPIO1*%
X125485000Y-63240000D03*
%TO.N,/GPIO0*%
X125485000Y-65780000D03*
%TD*%
D21*
%TO.N,Net-(J2-Pin_2)*%
X109410000Y-63135000D02*
X109515000Y-63240000D01*
X105600000Y-63135000D02*
X109410000Y-63135000D01*
%TO.N,Net-(J2-Pin_1)*%
X105000000Y-65535000D02*
X106000000Y-65535000D01*
X109410000Y-65675000D02*
X109515000Y-65780000D01*
X105600000Y-65675000D02*
X109410000Y-65675000D01*
%TO.N,GNDREF*%
X116500000Y-73000000D02*
X116450000Y-72950000D01*
X116450000Y-72950000D02*
X116450000Y-72875000D01*
X127540000Y-50540000D02*
X129200000Y-52200000D01*
X125485000Y-50540000D02*
X127540000Y-50540000D01*
X116450000Y-61050000D02*
X116450000Y-72875000D01*
X125500000Y-52000000D02*
X116450000Y-61050000D01*
X125500000Y-50555000D02*
X125500000Y-52000000D01*
X129200000Y-52200000D02*
X129200000Y-57980000D01*
X125485000Y-50540000D02*
X125500000Y-50555000D01*
%TO.N,/3.3V*%
X118500000Y-61500000D02*
X125485000Y-54515000D01*
X128120000Y-60520000D02*
X127800000Y-60200000D01*
X127480000Y-53080000D02*
X125485000Y-53080000D01*
X118500000Y-61500000D02*
X118500000Y-71500000D01*
X127800000Y-53400000D02*
X127480000Y-53080000D01*
X127800000Y-60200000D02*
X127800000Y-53400000D01*
X129200000Y-60520000D02*
X128120000Y-60520000D01*
X125485000Y-54515000D02*
X125485000Y-53080000D01*
%TO.N,/GPIO1*%
X129020000Y-63240000D02*
X129200000Y-63060000D01*
X125485000Y-63240000D02*
X129020000Y-63240000D01*
%TO.N,/GPIO0*%
X125485000Y-65780000D02*
X129020000Y-65780000D01*
X129020000Y-65780000D02*
X129200000Y-65600000D01*
%TD*%
D14*
%TO.C,J1*%
X122540000Y-47000000D03*
X122540000Y-52040000D03*
X120000000Y-47000000D03*
X120000000Y-52040000D03*
X117460000Y-47000000D03*
X117460000Y-52040000D03*
X114920000Y-47000000D03*
X114920000Y-52040000D03*
X112380000Y-47000000D03*
X112380000Y-52040000D03*
%TD*%
D22*
X124764819Y-49186666D02*
X125479104Y-49186666D01*
X125479104Y-49186666D02*
X125621961Y-49139047D01*
X125621961Y-49139047D02*
X125717200Y-49043809D01*
X125717200Y-49043809D02*
X125764819Y-48900952D01*
X125764819Y-48900952D02*
X125764819Y-48805714D01*
X125764819Y-50186666D02*
X125764819Y-49615238D01*
X125764819Y-49900952D02*
X124764819Y-49900952D01*
X124764819Y-49900952D02*
X124907676Y-49805714D01*
X124907676Y-49805714D02*
X125002914Y-49710476D01*
X125002914Y-49710476D02*
X125050533Y-49615238D01*
D23*
%TO.C,J1*%
X111050000Y-52120000D02*
X111050000Y-46920000D01*
X111620000Y-46920000D02*
X111050000Y-46920000D01*
X111620000Y-52120000D02*
X111050000Y-52120000D01*
X114160000Y-46920000D02*
X113140000Y-46920000D01*
X114160000Y-52120000D02*
X113140000Y-52120000D01*
X116700000Y-46920000D02*
X115680000Y-46920000D01*
X116700000Y-52120000D02*
X115680000Y-52120000D01*
X119240000Y-46920000D02*
X118220000Y-46920000D01*
X119240000Y-52120000D02*
X118220000Y-52120000D01*
X121780000Y-46920000D02*
X120760000Y-46920000D01*
X121780000Y-52120000D02*
X120760000Y-52120000D01*
X123300000Y-46920000D02*
X123300000Y-45560000D01*
X123870000Y-46920000D02*
X123300000Y-46920000D01*
X123870000Y-52120000D02*
X123300000Y-52120000D01*
X123870000Y-52120000D02*
X123870000Y-46920000D01*
%TD*%
%LPC*%
D10*
%TO.C,J3*%
X129200000Y-57980000D03*
D11*
X129200000Y-60520000D03*
X129200000Y-63060000D03*
X129200000Y-65600000D03*
%TD*%
D10*
%TO.C,J2*%
X105600000Y-65675000D03*
D11*
X105600000Y-63135000D03*
%TD*%
D12*
%TO.C,D1*%
X115730000Y-84000000D03*
D13*
X118270000Y-84000000D03*
%TD*%
D14*
%TO.C,J1*%
X122540000Y-47000000D03*
X122540000Y-52040000D03*
X120000000Y-47000000D03*
X120000000Y-52040000D03*
X117460000Y-47000000D03*
X117460000Y-52040000D03*
X114920000Y-47000000D03*
X114920000Y-52040000D03*
X112380000Y-47000000D03*
X112380000Y-52040000D03*
%TD*%
%LPD*%
D15*
%TO.P,J3,1,Pin_1*%
%TO.N,GNDREF*%
X129200000Y-57980000D03*
D16*
%TO.P,J3,2,Pin_2*%
%TO.N,/3.3V*%
X129200000Y-60520000D03*
%TO.P,J3,3,Pin_3*%
%TO.N,/GPIO1*%
X129200000Y-63060000D03*
%TO.P,J3,4,Pin_4*%
%TO.N,/GPIO0*%
X129200000Y-65600000D03*
%TD*%
D15*
%TO.P,J2,1,Pin_1*%
%TO.N,Net-(J2-Pin_1)*%
X105600000Y-65675000D03*
D16*
%TO.P,J2,2,Pin_2*%
%TO.N,Net-(J2-Pin_2)*%
X105600000Y-63135000D03*
%TD*%
D24*
%TO.P,R1,1*%
%TO.N,/3.3V*%
X118500000Y-71500000D03*
%TO.P,R1,2*%
%TO.N,Net-(D1-A)*%
X118500000Y-73150000D03*
%TD*%
D17*
%TO.P,D1,1,K*%
%TO.N,Net-(D1-K)*%
X115730000Y-84000000D03*
D18*
%TO.P,D1,2,A*%
%TO.N,Net-(D1-A)*%
X118270000Y-84000000D03*
%TD*%
D24*
%TO.P,R2,1*%
%TO.N,/GPIO10*%
X112500000Y-71500000D03*
%TO.P,R2,2*%
%TO.N,Net-(Q1-B)*%
X112500000Y-73150000D03*
%TD*%
D25*
%TO.P,U1,0,GPIO0*%
%TO.N,/GPIO0*%
X125485000Y-65780000D03*
%TO.P,U1,1,GPIO1*%
%TO.N,/GPIO1*%
X125485000Y-63240000D03*
%TO.P,U1,2,GPIO2*%
%TO.N,/GPIO2*%
X125485000Y-60700000D03*
%TO.P,U1,3,GPIO3*%
%TO.N,/GPIO3*%
X125485000Y-58160000D03*
%TO.P,U1,3.3,3V3*%
%TO.N,/3.3V*%
X125485000Y-53080000D03*
%TO.P,U1,4,GPIO4*%
%TO.N,/GPIO4*%
X125485000Y-55620000D03*
%TO.P,U1,5,GPIO5*%
%TO.N,/GPIO5*%
X109515000Y-48000000D03*
%TO.P,U1,5V,5V*%
%TO.N,unconnected-(U1-Pad5V)*%
X125485000Y-48000000D03*
%TO.P,U1,6,GPIO6*%
%TO.N,/GPIO6*%
X109515000Y-50540000D03*
%TO.P,U1,7,GPIO7*%
%TO.N,/GPIO7*%
X109515000Y-53080000D03*
%TO.P,U1,8,GPIO8*%
%TO.N,/GPIO8*%
X109515000Y-55620000D03*
%TO.P,U1,9,GPIO9*%
%TO.N,/GPIO9*%
X109515000Y-58160000D03*
%TO.P,U1,10,GPIO10*%
%TO.N,/GPIO10*%
X109515000Y-60700000D03*
%TO.P,U1,20,GPIO20*%
%TO.N,Net-(J2-Pin_2)*%
X109515000Y-63240000D03*
%TO.P,U1,21,GPIO21*%
%TO.N,Net-(J2-Pin_1)*%
X109515000Y-65780000D03*
%TO.P,U1,G,GND*%
%TO.N,GNDREF*%
X125485000Y-50540000D03*
%TD*%
D26*
%TO.P,Q1,1,B*%
%TO.N,Net-(Q1-B)*%
X114550000Y-72875000D03*
%TO.P,Q1,2,E*%
%TO.N,GNDREF*%
X116450000Y-72875000D03*
%TO.P,Q1,3,C*%
%TO.N,Net-(D1-K)*%
X115500000Y-71000000D03*
%TD*%
D20*
%TO.N,/GPIO9*%
X117500000Y-52000000D03*
%TO.N,Net-(J2-Pin_2)*%
X109515000Y-63240000D03*
%TO.N,Net-(J2-Pin_1)*%
X109515000Y-65780000D03*
%TO.N,GNDREF*%
X125485000Y-50540000D03*
X116450000Y-72875000D03*
X122540000Y-47000000D03*
%TO.N,/3.3V*%
X118500000Y-71500000D03*
X125485000Y-53080000D03*
X122540000Y-52040000D03*
%TO.N,/GPIO3*%
X120000000Y-52000000D03*
%TO.N,/GPIO4*%
X120000000Y-47000000D03*
%TO.N,/GPIO2*%
X117500000Y-47000000D03*
%TO.N,/GPIO7*%
X112380000Y-52040000D03*
%TO.N,/GPIO8*%
X114920000Y-52040000D03*
%TO.N,/GPIO6*%
X114920000Y-47000000D03*
%TO.N,/GPIO5*%
X112380000Y-47000000D03*
%TO.N,/GPIO1*%
X125485000Y-63240000D03*
%TO.N,/GPIO0*%
X125485000Y-65780000D03*
%TD*%
D21*
%TO.N,Net-(D1-A)*%
X118500000Y-73150000D02*
X118500000Y-83770000D01*
X118500000Y-83770000D02*
X118270000Y-84000000D01*
%TO.N,/GPIO9*%
X117500000Y-54500000D02*
X117500000Y-52000000D01*
X109515000Y-58160000D02*
X113840000Y-58160000D01*
X113840000Y-58160000D02*
X117500000Y-54500000D01*
%TO.N,Net-(J2-Pin_2)*%
X109515000Y-63240000D02*
X109337500Y-63062500D01*
X109275000Y-63000000D02*
X109337500Y-63062500D01*
%TO.N,Net-(Q1-B)*%
X114275000Y-73150000D02*
X114550000Y-72875000D01*
X112500000Y-73150000D02*
X114275000Y-73150000D01*
%TO.N,Net-(J2-Pin_1)*%
X109515000Y-65780000D02*
X109580000Y-65780000D01*
X109580000Y-65780000D02*
X109600000Y-65800000D01*
%TO.N,GNDREF*%
X122540000Y-48345500D02*
X122540000Y-47000000D01*
X124734500Y-50540000D02*
X122540000Y-48345500D01*
X125485000Y-50540000D02*
X124734500Y-50540000D01*
%TO.N,Net-(D1-K)*%
X115500000Y-83770000D02*
X115730000Y-84000000D01*
X115500000Y-71000000D02*
X115500000Y-83770000D01*
%TO.N,/GPIO10*%
X111700000Y-60700000D02*
X109515000Y-60700000D01*
X112500000Y-71500000D02*
X112500000Y-61500000D01*
X112500000Y-61500000D02*
X111700000Y-60700000D01*
%TO.N,/3.3V*%
X125485000Y-53080000D02*
X123580000Y-53080000D01*
X123580000Y-53080000D02*
X122540000Y-52040000D01*
%TO.N,/GPIO3*%
X120000000Y-55000000D02*
X120000000Y-52000000D01*
X123160000Y-58160000D02*
X120000000Y-55000000D01*
X125485000Y-58160000D02*
X123160000Y-58160000D01*
%TO.N,/GPIO4*%
X121500000Y-48500000D02*
X120000000Y-47000000D01*
X121500000Y-54000000D02*
X121500000Y-48500000D01*
X123120000Y-55620000D02*
X121500000Y-54000000D01*
X125485000Y-55620000D02*
X123120000Y-55620000D01*
%TO.N,/GPIO2*%
X119000000Y-48500000D02*
X117500000Y-47000000D01*
X119000000Y-56500000D02*
X119000000Y-48500000D01*
X123200000Y-60700000D02*
X119000000Y-56500000D01*
X125485000Y-60700000D02*
X123200000Y-60700000D01*
%TO.N,/GPIO7*%
X109515000Y-53080000D02*
X111340000Y-53080000D01*
X111340000Y-53080000D02*
X112380000Y-52040000D01*
%TO.N,/GPIO8*%
X113880000Y-55620000D02*
X114920000Y-54580000D01*
X109515000Y-55620000D02*
X113880000Y-55620000D01*
X114920000Y-54580000D02*
X114920000Y-52040000D01*
%TO.N,/GPIO6*%
X109515000Y-50515000D02*
X109500000Y-50500000D01*
X111655833Y-50500000D02*
X114920000Y-47235833D01*
X114920000Y-47235833D02*
X114920000Y-47000000D01*
X109500000Y-50500000D02*
X111655833Y-50500000D01*
X109515000Y-50540000D02*
X109515000Y-50515000D01*
%TO.N,/GPIO5*%
X109515000Y-48000000D02*
X111380000Y-48000000D01*
X111380000Y-48000000D02*
X112380000Y-47000000D01*
%TO.N,/GPIO1*%
X125725000Y-63000000D02*
X125485000Y-63240000D01*
%TD*%
D10*
%TO.C,J3*%
X129200000Y-57980000D03*
D11*
X129200000Y-60520000D03*
X129200000Y-63060000D03*
X129200000Y-65600000D03*
%TD*%
D10*
%TO.C,J2*%
X105600000Y-65675000D03*
D11*
X105600000Y-63135000D03*
%TD*%
D27*
%TO.C,R1*%
X118500000Y-71500000D03*
X118500000Y-73150000D03*
%TD*%
D12*
%TO.C,D1*%
X115730000Y-84000000D03*
D13*
X118270000Y-84000000D03*
%TD*%
D27*
%TO.C,R2*%
X112500000Y-71500000D03*
X112500000Y-73150000D03*
%TD*%
D28*
%TO.C,U1*%
X125485000Y-65780000D03*
X125485000Y-63240000D03*
X125485000Y-60700000D03*
X125485000Y-58160000D03*
X125485000Y-53080000D03*
X125485000Y-55620000D03*
X109515000Y-48000000D03*
X125485000Y-48000000D03*
X109515000Y-50540000D03*
X109515000Y-53080000D03*
X109515000Y-55620000D03*
X109515000Y-58160000D03*
X109515000Y-60700000D03*
X109515000Y-63240000D03*
X109515000Y-65780000D03*
X125485000Y-50540000D03*
%TD*%
D29*
%TO.C,Q1*%
X114550000Y-72875000D03*
X116450000Y-72875000D03*
X115500000Y-71000000D03*
%TD*%
D27*
%TO.C,R1*%
X118500000Y-71500000D03*
X118500000Y-73150000D03*
%TD*%
%TO.C,R2*%
X112500000Y-71500000D03*
X112500000Y-73150000D03*
%TD*%
D30*
%TO.C,U1*%
X125485000Y-65780000D03*
X125485000Y-63240000D03*
X125485000Y-60700000D03*
X125485000Y-58160000D03*
X125485000Y-53080000D03*
X125485000Y-55620000D03*
X109515000Y-48000000D03*
X125485000Y-48000000D03*
X109515000Y-50540000D03*
X109515000Y-53080000D03*
X109515000Y-55620000D03*
X109515000Y-58160000D03*
X109515000Y-60700000D03*
X109515000Y-63240000D03*
X109515000Y-65780000D03*
X125485000Y-50540000D03*
%TD*%
D29*
%TO.C,Q1*%
X114550000Y-72875000D03*
X116450000Y-72875000D03*
X115500000Y-71000000D03*
%TD*%
D22*
G36*
X123371188Y-76523831D02*
G01*
X123369784Y-76546728D01*
X123365387Y-76562360D01*
X123357877Y-76571946D01*
X123347313Y-76575000D01*
X122956525Y-76575000D01*
X122941457Y-76572434D01*
X122926788Y-76564436D01*
X122916711Y-76550904D01*
X122912805Y-76527250D01*
X122912805Y-75709769D01*
X122915553Y-75700183D01*
X122925140Y-75693710D01*
X122943580Y-75689619D01*
X122971546Y-75687909D01*
X122999878Y-75689619D01*
X123018013Y-75693710D01*
X123027599Y-75700183D01*
X123030347Y-75709769D01*
X123030347Y-76473394D01*
X123347313Y-76473394D01*
X123357877Y-76476509D01*
X123365387Y-76485362D01*
X123369784Y-76500689D01*
X123371188Y-76523831D01*
G37*
G36*
X123600715Y-76557780D02*
G01*
X123597968Y-76567001D01*
X123589053Y-76573473D01*
X123572017Y-76577503D01*
X123543990Y-76578907D01*
X123516696Y-76577503D01*
X123499232Y-76573473D01*
X123490379Y-76567001D01*
X123487997Y-76557780D01*
X123487997Y-75943510D01*
X123490379Y-75934656D01*
X123499232Y-75927878D01*
X123516696Y-75923787D01*
X123543990Y-75922383D01*
X123572017Y-75923787D01*
X123589053Y-75927878D01*
X123597968Y-75934656D01*
X123600715Y-75943510D01*
X123600715Y-76557780D01*
G37*
G36*
X123613660Y-75737063D02*
G01*
X123609217Y-75772577D01*
X123598639Y-75790858D01*
X123579739Y-75800901D01*
X123543318Y-75805146D01*
X123507498Y-75801004D01*
X123488974Y-75791224D01*
X123478661Y-75773319D01*
X123474320Y-75738407D01*
X123478763Y-75702893D01*
X123489341Y-75684612D01*
X123508241Y-75674569D01*
X123544662Y-75670324D01*
X123580464Y-75674485D01*
X123598945Y-75684307D01*
X123609300Y-75702168D01*
X123613660Y-75737063D01*
G37*
G36*
X124131589Y-75916835D02*
G01*
X124185799Y-75933801D01*
X124232654Y-75961304D01*
X124269513Y-75996144D01*
X124297736Y-76038276D01*
X124317690Y-76088040D01*
X124329148Y-76141998D01*
X124333077Y-76200758D01*
X124333077Y-76221153D01*
X124329345Y-76244941D01*
X124319705Y-76258949D01*
X124305420Y-76267391D01*
X124289358Y-76270184D01*
X123886296Y-76270184D01*
X123888990Y-76320296D01*
X123896554Y-76362936D01*
X123910452Y-76401722D01*
X123930687Y-76433705D01*
X123957873Y-76459588D01*
X123992847Y-76479073D01*
X124033643Y-76490632D01*
X124086453Y-76494888D01*
X124128930Y-76492978D01*
X124164306Y-76487683D01*
X124223412Y-76471441D01*
X124264384Y-76455259D01*
X124288686Y-76447993D01*
X124297174Y-76450436D01*
X124302975Y-76457641D01*
X124306089Y-76470952D01*
X124307127Y-76491835D01*
X124306394Y-76507283D01*
X124304684Y-76518946D01*
X124301265Y-76528227D01*
X124295098Y-76536104D01*
X124272933Y-76548438D01*
X124225122Y-76565352D01*
X124157162Y-76580129D01*
X124074852Y-76586723D01*
X124001852Y-76581124D01*
X123941984Y-76565535D01*
X123889095Y-76538971D01*
X123845996Y-76502643D01*
X123812347Y-76456579D01*
X123787195Y-76398046D01*
X123772662Y-76332242D01*
X123767411Y-76251744D01*
X123771918Y-76187142D01*
X123886296Y-76187142D01*
X124219688Y-76187142D01*
X124215719Y-76129685D01*
X124202234Y-76084457D01*
X124180365Y-76048778D01*
X124149528Y-76021612D01*
X124109613Y-76004698D01*
X124057755Y-75998586D01*
X124017882Y-76002663D01*
X123984665Y-76014218D01*
X123955621Y-76032465D01*
X123932031Y-76055556D01*
X123913435Y-76083144D01*
X123899241Y-76115579D01*
X123890229Y-76150461D01*
X123886296Y-76187142D01*
X123771918Y-76187142D01*
X123772771Y-76174918D01*
X123787927Y-76109289D01*
X123813426Y-76049985D01*
X123847034Y-76001945D01*
X123889555Y-75963004D01*
X123940274Y-75934228D01*
X123997199Y-75916738D01*
X124062517Y-75910659D01*
X124131589Y-75916835D01*
G37*
G36*
X124589044Y-75622880D02*
G01*
X124606080Y-75626971D01*
X124614995Y-75633810D01*
X124617743Y-75643335D01*
X124617743Y-76011837D01*
X124670621Y-75964698D01*
X124720874Y-75933557D01*
X124770028Y-75916154D01*
X124821991Y-75910659D01*
X124885533Y-75917683D01*
X124936357Y-75937342D01*
X124979466Y-75968571D01*
X125013538Y-76008784D01*
X125038888Y-76056492D01*
X125056952Y-76113686D01*
X125067141Y-76174898D01*
X125070630Y-76240814D01*
X125066051Y-76318520D01*
X125053166Y-76384734D01*
X125031141Y-76445058D01*
X125001937Y-76493789D01*
X124964163Y-76533690D01*
X124918955Y-76562787D01*
X124867255Y-76580513D01*
X124806237Y-76586723D01*
X124751954Y-76580922D01*
X124703105Y-76562116D01*
X124655295Y-76529326D01*
X124604737Y-76481454D01*
X124604737Y-76557475D01*
X124601989Y-76567184D01*
X124593135Y-76573717D01*
X124577748Y-76577503D01*
X124554178Y-76578907D01*
X124530914Y-76577503D01*
X124515222Y-76573778D01*
X124507039Y-76567306D01*
X124505024Y-76557719D01*
X124505024Y-76128035D01*
X124617743Y-76128035D01*
X124617743Y-76373438D01*
X124665187Y-76425571D01*
X124706525Y-76460205D01*
X124750431Y-76482785D01*
X124794635Y-76490003D01*
X124834623Y-76484675D01*
X124867053Y-76469487D01*
X124894100Y-76445789D01*
X124915902Y-76415020D01*
X124931958Y-76379561D01*
X124943196Y-76339061D01*
X124949606Y-76296699D01*
X124951745Y-76253820D01*
X124944539Y-76162107D01*
X124934493Y-76119401D01*
X124919627Y-76083400D01*
X124898808Y-76052259D01*
X124872549Y-76028262D01*
X124840487Y-76012859D01*
X124799459Y-76007379D01*
X124756411Y-76013546D01*
X124713364Y-76034124D01*
X124667934Y-76071188D01*
X124617743Y-76128035D01*
X124505024Y-76128035D01*
X124505024Y-75643396D01*
X124507406Y-75633810D01*
X124516260Y-75626971D01*
X124533723Y-75622880D01*
X124561017Y-75621475D01*
X124589044Y-75622880D01*
G37*
G36*
X125562852Y-75916835D02*
G01*
X125617062Y-75933801D01*
X125663917Y-75961304D01*
X125700776Y-75996144D01*
X125728999Y-76038276D01*
X125748953Y-76088040D01*
X125760411Y-76141998D01*
X125764341Y-76200758D01*
X125764341Y-76221153D01*
X125760608Y-76244941D01*
X125750968Y-76258949D01*
X125736683Y-76267391D01*
X125720621Y-76270184D01*
X125317559Y-76270184D01*
X125320253Y-76320296D01*
X125327818Y-76362936D01*
X125341715Y-76401722D01*
X125361950Y-76433705D01*
X125389136Y-76459588D01*
X125424110Y-76479073D01*
X125464906Y-76490632D01*
X125517716Y-76494888D01*
X125560193Y-76492978D01*
X125595569Y-76487683D01*
X125654676Y-76471441D01*
X125695647Y-76455259D01*
X125719949Y-76447993D01*
X125728437Y-76450436D01*
X125734238Y-76457641D01*
X125737352Y-76470952D01*
X125738390Y-76491835D01*
X125737657Y-76507283D01*
X125735947Y-76518946D01*
X125732528Y-76528227D01*
X125726361Y-76536104D01*
X125704196Y-76548438D01*
X125656385Y-76565352D01*
X125588425Y-76580129D01*
X125506115Y-76586723D01*
X125433115Y-76581124D01*
X125373247Y-76565535D01*
X125320358Y-76538971D01*
X125277259Y-76502643D01*
X125243610Y-76456579D01*
X125218458Y-76398046D01*
X125203925Y-76332242D01*
X125198674Y-76251744D01*
X125203181Y-76187142D01*
X125317559Y-76187142D01*
X125650951Y-76187142D01*
X125646982Y-76129685D01*
X125633497Y-76084457D01*
X125611628Y-76048778D01*
X125580791Y-76021612D01*
X125540876Y-76004698D01*
X125489018Y-75998586D01*
X125449145Y-76002663D01*
X125415928Y-76014218D01*
X125386884Y-76032465D01*
X125363294Y-76055556D01*
X125344698Y-76083144D01*
X125330504Y-76115579D01*
X125321492Y-76150461D01*
X125317559Y-76187142D01*
X125203181Y-76187142D01*
X125204034Y-76174918D01*
X125219191Y-76109289D01*
X125244689Y-76049985D01*
X125278297Y-76001945D01*
X125320818Y-75963004D01*
X125371537Y-75934228D01*
X125428462Y-75916738D01*
X125493781Y-75910659D01*
X125562852Y-75916835D01*
G37*
G36*
X126322252Y-76389131D02*
G01*
X126317729Y-76434519D01*
X126304789Y-76473272D01*
X126283717Y-76507256D01*
X126255269Y-76535493D01*
X126220666Y-76557411D01*
X126178760Y-76573778D01*
X126133008Y-76583371D01*
X126081062Y-76586723D01*
X126018536Y-76581594D01*
X125965291Y-76568649D01*
X125925297Y-76552285D01*
X125901422Y-76536898D01*
X125890492Y-76517847D01*
X125887073Y-76484508D01*
X125888416Y-76462709D01*
X125891835Y-76448421D01*
X125897636Y-76440605D01*
X125906185Y-76438224D01*
X125928411Y-76447444D01*
X125964620Y-76467533D01*
X126015483Y-76487683D01*
X126046179Y-76494424D01*
X126083139Y-76496842D01*
X126135040Y-76490675D01*
X126157105Y-76482880D01*
X126175340Y-76472479D01*
X126190486Y-76458811D01*
X126201657Y-76441948D01*
X126208451Y-76422292D01*
X126210878Y-76398046D01*
X126207417Y-76373709D01*
X126197566Y-76354326D01*
X126182437Y-76337836D01*
X126162395Y-76322880D01*
X126113180Y-76298639D01*
X126056821Y-76276413D01*
X126000157Y-76250095D01*
X125973861Y-76233700D01*
X125950637Y-76214192D01*
X125931024Y-76191137D01*
X125915405Y-76163633D01*
X125905627Y-76132374D01*
X125902094Y-76093169D01*
X125905595Y-76057697D01*
X125916076Y-76023804D01*
X125933500Y-75992849D01*
X125958086Y-75965736D01*
X125988853Y-75943684D01*
X126028123Y-75925741D01*
X126072216Y-75914653D01*
X126126186Y-75910659D01*
X126175340Y-75914933D01*
X126219731Y-75925680D01*
X126253559Y-75939602D01*
X126274747Y-75952852D01*
X126284334Y-75962622D01*
X126287692Y-75971842D01*
X126289768Y-75984542D01*
X126290806Y-76002983D01*
X126289768Y-76023133D01*
X126286349Y-76037177D01*
X126280548Y-76045054D01*
X126273037Y-76047435D01*
X126255269Y-76039680D01*
X126225227Y-76023011D01*
X126181813Y-76006402D01*
X126155853Y-76000645D01*
X126124782Y-75998586D01*
X126097096Y-76000301D01*
X126074285Y-76005059D01*
X126053895Y-76013140D01*
X126038381Y-76023438D01*
X126026061Y-76036456D01*
X126017193Y-76051648D01*
X126010049Y-76087002D01*
X126013595Y-76112010D01*
X126023665Y-76131821D01*
X126039106Y-76148542D01*
X126059203Y-76163572D01*
X126109089Y-76188180D01*
X126166120Y-76210772D01*
X126223517Y-76236723D01*
X126250406Y-76252736D01*
X126273709Y-76271589D01*
X126293317Y-76293990D01*
X126308880Y-76320804D01*
X126318716Y-76351264D01*
X126322252Y-76389131D01*
G37*
G36*
X126988180Y-76557048D02*
G01*
X126985433Y-76566634D01*
X126976212Y-76573473D01*
X126958139Y-76577503D01*
X126928768Y-76578907D01*
X126898360Y-76577869D01*
X126878210Y-76574450D01*
X126864899Y-76567672D01*
X126855679Y-76557048D01*
X126596110Y-76217184D01*
X126596110Y-76557780D01*
X126593362Y-76567001D01*
X126584447Y-76573473D01*
X126567411Y-76577503D01*
X126539384Y-76578907D01*
X126512090Y-76577503D01*
X126494627Y-76573473D01*
X126485773Y-76566939D01*
X126483391Y-76557719D01*
X126483391Y-75643396D01*
X126485773Y-75633810D01*
X126494627Y-75626971D01*
X126512090Y-75622880D01*
X126539384Y-75621475D01*
X126567411Y-75622880D01*
X126584447Y-75626971D01*
X126593362Y-75633810D01*
X126596110Y-75643396D01*
X126596110Y-76201491D01*
X126828323Y-75946257D01*
X126839925Y-75935022D01*
X126854641Y-75927512D01*
X126874791Y-75923421D01*
X126902818Y-75922383D01*
X126931516Y-75923421D01*
X126950262Y-75926840D01*
X126960520Y-75933007D01*
X126963634Y-75942838D01*
X126959177Y-75959263D01*
X126944461Y-75978314D01*
X126721773Y-76200819D01*
X126971816Y-76524991D01*
X126984395Y-76543797D01*
X126988180Y-76557048D01*
G37*
G36*
X127232118Y-76557780D02*
G01*
X127229370Y-76567001D01*
X127220455Y-76573473D01*
X127203419Y-76577503D01*
X127175393Y-76578907D01*
X127148098Y-76577503D01*
X127130635Y-76573473D01*
X127121781Y-76567001D01*
X127119400Y-76557780D01*
X127119400Y-75943510D01*
X127121781Y-75934656D01*
X127130635Y-75927878D01*
X127148098Y-75923787D01*
X127175393Y-75922383D01*
X127203419Y-75923787D01*
X127220455Y-75927878D01*
X127229370Y-75934656D01*
X127232118Y-75943510D01*
X127232118Y-76557780D01*
G37*
G36*
X127245063Y-75737063D02*
G01*
X127240620Y-75772577D01*
X127230042Y-75790858D01*
X127211142Y-75800901D01*
X127174721Y-75805146D01*
X127138901Y-75801004D01*
X127120377Y-75791224D01*
X127110064Y-75773319D01*
X127105722Y-75738407D01*
X127110166Y-75702893D01*
X127120743Y-75684612D01*
X127139643Y-75674569D01*
X127176064Y-75670324D01*
X127211867Y-75674485D01*
X127230347Y-75684307D01*
X127240703Y-75702168D01*
X127245063Y-75737063D01*
G37*
G36*
X127969243Y-76557658D02*
G01*
X127966495Y-76566939D01*
X127957641Y-76573412D01*
X127940544Y-76577503D01*
X127913250Y-76578907D01*
X127885223Y-76577503D01*
X127868126Y-76573412D01*
X127859273Y-76566939D01*
X127856525Y-76557658D01*
X127856525Y-76196728D01*
X127854223Y-76146551D01*
X127848343Y-76111793D01*
X127838016Y-76081263D01*
X127824407Y-76056350D01*
X127806371Y-76035752D01*
X127783740Y-76020690D01*
X127757453Y-76011568D01*
X127726038Y-76008356D01*
X127684821Y-76015506D01*
X127641347Y-76038520D01*
X127600076Y-76073571D01*
X127552565Y-76126875D01*
X127552565Y-76557658D01*
X127549817Y-76566939D01*
X127540902Y-76573412D01*
X127523866Y-76577503D01*
X127495839Y-76578907D01*
X127468545Y-76577503D01*
X127451082Y-76573473D01*
X127442228Y-76567001D01*
X127439846Y-76557780D01*
X127439846Y-75943510D01*
X127441861Y-75934351D01*
X127450044Y-75927512D01*
X127465736Y-75923421D01*
X127491076Y-75922383D01*
X127515989Y-75923421D01*
X127531315Y-75927512D01*
X127539192Y-75934351D01*
X127541635Y-75943571D01*
X127541635Y-76024781D01*
X127595455Y-75971864D01*
X127645072Y-75938136D01*
X127697603Y-75917351D01*
X127749302Y-75910659D01*
X127807711Y-75916248D01*
X127852800Y-75931542D01*
X127891109Y-75956194D01*
X127920761Y-75987351D01*
X127942797Y-76024754D01*
X127957947Y-76069173D01*
X127966183Y-76118473D01*
X127969243Y-76181769D01*
X127969243Y-76557658D01*
G37*
G36*
X128671807Y-75627093D02*
G01*
X128688904Y-75631184D01*
X128698125Y-75638023D01*
X128701178Y-75647243D01*
X128701178Y-76557719D01*
X128698796Y-76567306D01*
X128690614Y-76573778D01*
X128675227Y-76577503D01*
X128652024Y-76578907D01*
X128628088Y-76577503D01*
X128612395Y-76573778D01*
X128603480Y-76567184D01*
X128600794Y-76557475D01*
X128600794Y-76475287D01*
X128550191Y-76523036D01*
X128499983Y-76557353D01*
X128445548Y-76579314D01*
X128385616Y-76586723D01*
X128321355Y-76579781D01*
X128270150Y-76560406D01*
X128226784Y-76529411D01*
X128192603Y-76489331D01*
X128167311Y-76441534D01*
X128149250Y-76384063D01*
X128139056Y-76322531D01*
X128135572Y-76256568D01*
X128136303Y-76243928D01*
X128252381Y-76243928D01*
X128259525Y-76334848D01*
X128269600Y-76377500D01*
X128284499Y-76413799D01*
X128305383Y-76445146D01*
X128331638Y-76469181D01*
X128363782Y-76484516D01*
X128405400Y-76490003D01*
X128448753Y-76483897D01*
X128491495Y-76463442D01*
X128537230Y-76426256D01*
X128587788Y-76370019D01*
X128587788Y-76123944D01*
X128540829Y-76071892D01*
X128499311Y-76037238D01*
X128455043Y-76014631D01*
X128410162Y-76007379D01*
X128369634Y-76012725D01*
X128337073Y-76027896D01*
X128310004Y-76051482D01*
X128288224Y-76081934D01*
X128272230Y-76117064D01*
X128260930Y-76157772D01*
X128254525Y-76200434D01*
X128252381Y-76243928D01*
X128136303Y-76243928D01*
X128140032Y-76179445D01*
X128152608Y-76113381D01*
X128174316Y-76053037D01*
X128203166Y-76004326D01*
X128240787Y-75964341D01*
X128286209Y-75934961D01*
X128338415Y-75916984D01*
X128400637Y-75910659D01*
X128452691Y-75916662D01*
X128499311Y-75934289D01*
X128542534Y-75962421D01*
X128587788Y-76003654D01*
X128587788Y-75647182D01*
X128590169Y-75638023D01*
X128599389Y-75631184D01*
X128616792Y-75627093D01*
X128643842Y-75625383D01*
X128671807Y-75627093D01*
G37*
G36*
X123241373Y-78204502D02*
G01*
X123239663Y-78226362D01*
X123234901Y-78242360D01*
X123226719Y-78251946D01*
X123215422Y-78255000D01*
X122726998Y-78255000D01*
X122710267Y-78252618D01*
X122697994Y-78244802D01*
X122690422Y-78229049D01*
X122688041Y-78203770D01*
X122689079Y-78179895D01*
X122693536Y-78161821D01*
X122702085Y-78146067D01*
X122715396Y-78129337D01*
X122886855Y-77946460D01*
X122942464Y-77884338D01*
X122982109Y-77833681D01*
X123015006Y-77784195D01*
X123037491Y-77742761D01*
X123054110Y-77702204D01*
X123063076Y-77668267D01*
X123069243Y-77605375D01*
X123066817Y-77576432D01*
X123059656Y-77549382D01*
X123047907Y-77524456D01*
X123031996Y-77503037D01*
X123011878Y-77485339D01*
X122986567Y-77471407D01*
X122957920Y-77462794D01*
X122923735Y-77459745D01*
X122883406Y-77462724D01*
X122848936Y-77471163D01*
X122790867Y-77495893D01*
X122749224Y-77520683D01*
X122724250Y-77532041D01*
X122715701Y-77529354D01*
X122709595Y-77520561D01*
X122705810Y-77504319D01*
X122704466Y-77479956D01*
X122705138Y-77462370D01*
X122707519Y-77449548D01*
X122711977Y-77439412D01*
X122722907Y-77427566D01*
X122751239Y-77408271D01*
X122801797Y-77384274D01*
X122868720Y-77364307D01*
X122905884Y-77358252D01*
X122945595Y-77356186D01*
X123007393Y-77360981D01*
X123057947Y-77374321D01*
X123102712Y-77396232D01*
X123137875Y-77423963D01*
X123165668Y-77458051D01*
X123185380Y-77497236D01*
X123197094Y-77540012D01*
X123201073Y-77586202D01*
X123193563Y-77670710D01*
X123182374Y-77712989D01*
X123161811Y-77761629D01*
X123133665Y-77810971D01*
X123091774Y-77870439D01*
X123041333Y-77931608D01*
X122970202Y-78008253D01*
X122830129Y-78155348D01*
X123214751Y-78155348D01*
X123225314Y-78158463D01*
X123234168Y-78167683D01*
X123239663Y-78183009D01*
X123241373Y-78204502D01*
G37*
G36*
X123738304Y-77359814D02*
G01*
X123784836Y-77369981D01*
X123823953Y-77385922D01*
X123859336Y-77408728D01*
X123889820Y-77437688D01*
X123915789Y-77473422D01*
X123944838Y-77535684D01*
X123965309Y-77615633D01*
X123976104Y-77703136D01*
X123980025Y-77809378D01*
X123975825Y-77908941D01*
X123963966Y-77995369D01*
X123942028Y-78075250D01*
X123910721Y-78139961D01*
X123883110Y-78177497D01*
X123850774Y-78208517D01*
X123813329Y-78233567D01*
X123772006Y-78251392D01*
X123723113Y-78262701D01*
X123665134Y-78266723D01*
X123610193Y-78263105D01*
X123563868Y-78252947D01*
X123524756Y-78236987D01*
X123489369Y-78214183D01*
X123458865Y-78185223D01*
X123432859Y-78149487D01*
X123403840Y-78087239D01*
X123383339Y-78007337D01*
X123372589Y-77919782D01*
X123368685Y-77813531D01*
X123369040Y-77805287D01*
X123488913Y-77805287D01*
X123491696Y-77900662D01*
X123499110Y-77973693D01*
X123513117Y-78039254D01*
X123531534Y-78086716D01*
X123557578Y-78125254D01*
X123588259Y-78150219D01*
X123625311Y-78164787D01*
X123671973Y-78170003D01*
X123708711Y-78166783D01*
X123739201Y-78157730D01*
X123766270Y-78142724D01*
X123789088Y-78122559D01*
X123807905Y-78097766D01*
X123823587Y-78067604D01*
X123845447Y-77996591D01*
X123856743Y-77912205D01*
X123859796Y-77817622D01*
X123855033Y-77698797D01*
X123841050Y-77605863D01*
X123830079Y-77567301D01*
X123817115Y-77536559D01*
X123800651Y-77509655D01*
X123781944Y-77488810D01*
X123759960Y-77472558D01*
X123735110Y-77461454D01*
X123707859Y-77455137D01*
X123676064Y-77452906D01*
X123638223Y-77456232D01*
X123607251Y-77465532D01*
X123581787Y-77480261D01*
X123549923Y-77512031D01*
X123524756Y-77555366D01*
X123507655Y-77605727D01*
X123496424Y-77667351D01*
X123490857Y-77732721D01*
X123488913Y-77805287D01*
X123369040Y-77805287D01*
X123372949Y-77714587D01*
X123385049Y-77627906D01*
X123407247Y-77547678D01*
X123438355Y-77483009D01*
X123465749Y-77445444D01*
X123497941Y-77414405D01*
X123535319Y-77389342D01*
X123576675Y-77371495D01*
X123625382Y-77360197D01*
X123682903Y-77356186D01*
X123738304Y-77359814D01*
G37*
G36*
X124659936Y-78204502D02*
G01*
X124658226Y-78226362D01*
X124653463Y-78242360D01*
X124645281Y-78251946D01*
X124633985Y-78255000D01*
X124145560Y-78255000D01*
X124128829Y-78252618D01*
X124116556Y-78244802D01*
X124108985Y-78229049D01*
X124106603Y-78203770D01*
X124107641Y-78179895D01*
X124112099Y-78161821D01*
X124120647Y-78146067D01*
X124133959Y-78129337D01*
X124305417Y-77946460D01*
X124361026Y-77884338D01*
X124400672Y-77833681D01*
X124433569Y-77784195D01*
X124456054Y-77742761D01*
X124472672Y-77702204D01*
X124481638Y-77668267D01*
X124487805Y-77605375D01*
X124485380Y-77576432D01*
X124478219Y-77549382D01*
X124466469Y-77524456D01*
X124450558Y-77503037D01*
X124430440Y-77485339D01*
X124405129Y-77471407D01*
X124376483Y-77462794D01*
X124342298Y-77459745D01*
X124301969Y-77462724D01*
X124267498Y-77471163D01*
X124209430Y-77495893D01*
X124167786Y-77520683D01*
X124142812Y-77532041D01*
X124134264Y-77529354D01*
X124128158Y-77520561D01*
X124124372Y-77504319D01*
X124123029Y-77479956D01*
X124123700Y-77462370D01*
X124126082Y-77449548D01*
X124130539Y-77439412D01*
X124141469Y-77427566D01*
X124169801Y-77408271D01*
X124220359Y-77384274D01*
X124287282Y-77364307D01*
X124324447Y-77358252D01*
X124364157Y-77356186D01*
X124425955Y-77360981D01*
X124476509Y-77374321D01*
X124521275Y-77396232D01*
X124556438Y-77423963D01*
X124584230Y-77458051D01*
X124603943Y-77497236D01*
X124615656Y-77540012D01*
X124619635Y-77586202D01*
X124612125Y-77670710D01*
X124600936Y-77712989D01*
X124580373Y-77761629D01*
X124552228Y-77810971D01*
X124510337Y-77870439D01*
X124459895Y-77931608D01*
X124388765Y-78008253D01*
X124248692Y-78155348D01*
X124633313Y-78155348D01*
X124643877Y-78158463D01*
X124652730Y-78167683D01*
X124658226Y-78183009D01*
X124659936Y-78204502D01*
G37*
G36*
X125365126Y-77969724D02*
G01*
X125358894Y-78038105D01*
X125341190Y-78096058D01*
X125312191Y-78147207D01*
X125273596Y-78189237D01*
X125226302Y-78222253D01*
X125169426Y-78246939D01*
X125106888Y-78261593D01*
X125035215Y-78266723D01*
X124957301Y-78260861D01*
X124891722Y-78246512D01*
X124844583Y-78229659D01*
X124821014Y-78216653D01*
X124813809Y-78207739D01*
X124810084Y-78197725D01*
X124807702Y-78182948D01*
X124807031Y-78161699D01*
X124808069Y-78140755D01*
X124811794Y-78125673D01*
X124818266Y-78117063D01*
X124826814Y-78114316D01*
X124848003Y-78123047D01*
X124886593Y-78141854D01*
X124946677Y-78160966D01*
X124984313Y-78167571D01*
X125031795Y-78170003D01*
X125076387Y-78167174D01*
X125115754Y-78159073D01*
X125151778Y-78144869D01*
X125181699Y-78124940D01*
X125206196Y-78098976D01*
X125225052Y-78066566D01*
X125236589Y-78029048D01*
X125240806Y-77980898D01*
X125237317Y-77940117D01*
X125227495Y-77906099D01*
X125210595Y-77876406D01*
X125186523Y-77852182D01*
X125156161Y-77833872D01*
X125116486Y-77820125D01*
X125071992Y-77812369D01*
X125015370Y-77809501D01*
X124943624Y-77813592D01*
X124887631Y-77817683D01*
X124870405Y-77815188D01*
X124860276Y-77808829D01*
X124854569Y-77797547D01*
X124852094Y-77774757D01*
X124852094Y-77416086D01*
X124855018Y-77395652D01*
X124862657Y-77382747D01*
X124875061Y-77374743D01*
X124893126Y-77371817D01*
X125284526Y-77371817D01*
X125295089Y-77374931D01*
X125303638Y-77384152D01*
X125308767Y-77399844D01*
X125310476Y-77422437D01*
X125308544Y-77445509D01*
X125303638Y-77460722D01*
X125295144Y-77471188D01*
X125284526Y-77474399D01*
X124954553Y-77474399D01*
X124954553Y-77720535D01*
X125003402Y-77716444D01*
X125061165Y-77715711D01*
X125134285Y-77720534D01*
X125193667Y-77733846D01*
X125246672Y-77756217D01*
X125288250Y-77785015D01*
X125321512Y-77821556D01*
X125345647Y-77865249D01*
X125360112Y-77914140D01*
X125365126Y-77969724D01*
G37*
G36*
X125697357Y-78181666D02*
G01*
X125692467Y-78225629D01*
X125681298Y-78246695D01*
X125661078Y-78258077D01*
X125622863Y-78262815D01*
X125585904Y-78258184D01*
X125566138Y-78247001D01*
X125555216Y-78226446D01*
X125550445Y-78183742D01*
X125555337Y-78139788D01*
X125566504Y-78118773D01*
X125586731Y-78107346D01*
X125624939Y-78102592D01*
X125661888Y-78107226D01*
X125681603Y-78118407D01*
X125692569Y-78138968D01*
X125697357Y-78181666D01*
G37*
G36*
X126218834Y-77359814D02*
G01*
X126265367Y-77369981D01*
X126304484Y-77385922D01*
X126339866Y-77408728D01*
X126370350Y-77437688D01*
X126396319Y-77473422D01*
X126425368Y-77535684D01*
X126445839Y-77615633D01*
X126456634Y-77703136D01*
X126460555Y-77809378D01*
X126456356Y-77908941D01*
X126444496Y-77995369D01*
X126422558Y-78075250D01*
X126391251Y-78139961D01*
X126363640Y-78177497D01*
X126331304Y-78208517D01*
X126293859Y-78233567D01*
X126252536Y-78251392D01*
X126203644Y-78262701D01*
X126145665Y-78266723D01*
X126090724Y-78263105D01*
X126044398Y-78252947D01*
X126005286Y-78236987D01*
X125969900Y-78214183D01*
X125939395Y-78185223D01*
X125913390Y-78149487D01*
X125884371Y-78087239D01*
X125863870Y-78007337D01*
X125853119Y-77919782D01*
X125849215Y-77813531D01*
X125849570Y-77805287D01*
X125969444Y-77805287D01*
X125972226Y-77900662D01*
X125979641Y-77973693D01*
X125993647Y-78039254D01*
X126012064Y-78086716D01*
X126038108Y-78125254D01*
X126068789Y-78150219D01*
X126105841Y-78164787D01*
X126152504Y-78170003D01*
X126189241Y-78166783D01*
X126219731Y-78157730D01*
X126246801Y-78142724D01*
X126269618Y-78122559D01*
X126288436Y-78097766D01*
X126304117Y-78067604D01*
X126325977Y-77996591D01*
X126337273Y-77912205D01*
X126340326Y-77817622D01*
X126335564Y-77698797D01*
X126321581Y-77605863D01*
X126310609Y-77567301D01*
X126297645Y-77536559D01*
X126281181Y-77509655D01*
X126262474Y-77488810D01*
X126240491Y-77472558D01*
X126215640Y-77461454D01*
X126188390Y-77455137D01*
X126156595Y-77452906D01*
X126118754Y-77456232D01*
X126087782Y-77465532D01*
X126062317Y-77480261D01*
X126030453Y-77512031D01*
X126005286Y-77555366D01*
X125988185Y-77605727D01*
X125976954Y-77667351D01*
X125971387Y-77732721D01*
X125969444Y-77805287D01*
X125849570Y-77805287D01*
X125853480Y-77714587D01*
X125865579Y-77627906D01*
X125887778Y-77547678D01*
X125918885Y-77483009D01*
X125946280Y-77445444D01*
X125978471Y-77414405D01*
X126015850Y-77389342D01*
X126057206Y-77371495D01*
X126105913Y-77360197D01*
X126163433Y-77356186D01*
X126218834Y-77359814D01*
G37*
G36*
X127133627Y-78001720D02*
G01*
X127128156Y-78060269D01*
X127112439Y-78111079D01*
X127086658Y-78156349D01*
X127051684Y-78194549D01*
X127008338Y-78224757D01*
X126953986Y-78247978D01*
X126893658Y-78261820D01*
X126822828Y-78266723D01*
X126779236Y-78264896D01*
X126739847Y-78259640D01*
X126671153Y-78242787D01*
X126621267Y-78222515D01*
X126596354Y-78207311D01*
X126588538Y-78197847D01*
X126583714Y-78186367D01*
X126580661Y-78169820D01*
X126579623Y-78145823D01*
X126584386Y-78112056D01*
X126590392Y-78104839D01*
X126598064Y-78102592D01*
X126622305Y-78113278D01*
X126668772Y-78136297D01*
X126735023Y-78159317D01*
X126774198Y-78167219D01*
X126819409Y-78170003D01*
X126862927Y-78166949D01*
X126898665Y-78158463D01*
X126930558Y-78144197D01*
X126956001Y-78125734D01*
X126976367Y-78102629D01*
X126990867Y-78075664D01*
X126999506Y-78045788D01*
X127002469Y-78012711D01*
X126998682Y-77976624D01*
X126987753Y-77945300D01*
X126969860Y-77917583D01*
X126944766Y-77893520D01*
X126913981Y-77874670D01*
X126875096Y-77860181D01*
X126832170Y-77851633D01*
X126781185Y-77848579D01*
X126697165Y-77848579D01*
X126686541Y-77846198D01*
X126677626Y-77838382D01*
X126671520Y-77824033D01*
X126669138Y-77800830D01*
X126671153Y-77779337D01*
X126676954Y-77765659D01*
X126685503Y-77758148D01*
X126696432Y-77755767D01*
X126773674Y-77755767D01*
X126817344Y-77752718D01*
X126854580Y-77744105D01*
X126888212Y-77729535D01*
X126915396Y-77710338D01*
X126937402Y-77686167D01*
X126953620Y-77657704D01*
X126963546Y-77625774D01*
X126966992Y-77589193D01*
X126964746Y-77562159D01*
X126958078Y-77536559D01*
X126946935Y-77512952D01*
X126931455Y-77492840D01*
X126911610Y-77476472D01*
X126886026Y-77463592D01*
X126857034Y-77455714D01*
X126822156Y-77452906D01*
X126783622Y-77455985D01*
X126749372Y-77464874D01*
X126690326Y-77490519D01*
X126647279Y-77516165D01*
X126623343Y-77528133D01*
X126614794Y-77526423D01*
X126608688Y-77519645D01*
X126605269Y-77505296D01*
X126604231Y-77481055D01*
X126604902Y-77462981D01*
X126607650Y-77449303D01*
X126612413Y-77438740D01*
X126621633Y-77427505D01*
X126647950Y-77408759D01*
X126696799Y-77384518D01*
X126763721Y-77364368D01*
X126802478Y-77358293D01*
X126845359Y-77356186D01*
X126904649Y-77360371D01*
X126953315Y-77372001D01*
X126996639Y-77391427D01*
X127030862Y-77416575D01*
X127057963Y-77448174D01*
X127077268Y-77485573D01*
X127088688Y-77527153D01*
X127092655Y-77574417D01*
X127089852Y-77615297D01*
X127081725Y-77652269D01*
X127068088Y-77686534D01*
X127049608Y-77716139D01*
X127026205Y-77741736D01*
X126997706Y-77763461D01*
X126965116Y-77779809D01*
X126926692Y-77790572D01*
X126926692Y-77791915D01*
X126970935Y-77800132D01*
X127010346Y-77814752D01*
X127045949Y-77835353D01*
X127075558Y-77860059D01*
X127099844Y-77889504D01*
X127118240Y-77923745D01*
X127129735Y-77961237D01*
X127133627Y-78001720D01*
G37*
G36*
X127468606Y-78181666D02*
G01*
X127463716Y-78225629D01*
X127452547Y-78246695D01*
X127432327Y-78258077D01*
X127394112Y-78262815D01*
X127357153Y-78258184D01*
X127337387Y-78247001D01*
X127326465Y-78226446D01*
X127321694Y-78183742D01*
X127326587Y-78139788D01*
X127337753Y-78118773D01*
X127357980Y-78107346D01*
X127396188Y-78102592D01*
X127433138Y-78107226D01*
X127452852Y-78118407D01*
X127463819Y-78138968D01*
X127468606Y-78181666D01*
G37*
G36*
X127990083Y-77359814D02*
G01*
X128036616Y-77369981D01*
X128075733Y-77385922D01*
X128111115Y-77408728D01*
X128141599Y-77437688D01*
X128167568Y-77473422D01*
X128196617Y-77535684D01*
X128217088Y-77615633D01*
X128227883Y-77703136D01*
X128231804Y-77809378D01*
X128227605Y-77908941D01*
X128215745Y-77995369D01*
X128193808Y-78075250D01*
X128162500Y-78139961D01*
X128134890Y-78177497D01*
X128102553Y-78208517D01*
X128065108Y-78233567D01*
X128023785Y-78251392D01*
X127974893Y-78262701D01*
X127916914Y-78266723D01*
X127861973Y-78263105D01*
X127815647Y-78252947D01*
X127776535Y-78236987D01*
X127741149Y-78214183D01*
X127710644Y-78185223D01*
X127684639Y-78149487D01*
X127655620Y-78087239D01*
X127635119Y-78007337D01*
X127624368Y-77919782D01*
X127620464Y-77813531D01*
X127620819Y-77805287D01*
X127740693Y-77805287D01*
X127743475Y-77900662D01*
X127750890Y-77973693D01*
X127764897Y-78039254D01*
X127783313Y-78086716D01*
X127809357Y-78125254D01*
X127840038Y-78150219D01*
X127877090Y-78164787D01*
X127923753Y-78170003D01*
X127960491Y-78166783D01*
X127990981Y-78157730D01*
X128018050Y-78142724D01*
X128040867Y-78122559D01*
X128059685Y-78097766D01*
X128075366Y-78067604D01*
X128097226Y-77996591D01*
X128108522Y-77912205D01*
X128111575Y-77817622D01*
X128106813Y-77698797D01*
X128092830Y-77605863D01*
X128081858Y-77567301D01*
X128068894Y-77536559D01*
X128052430Y-77509655D01*
X128033723Y-77488810D01*
X128011740Y-77472558D01*
X127986889Y-77461454D01*
X127959639Y-77455137D01*
X127927844Y-77452906D01*
X127890003Y-77456232D01*
X127859031Y-77465532D01*
X127833566Y-77480261D01*
X127801702Y-77512031D01*
X127776535Y-77555366D01*
X127759434Y-77605727D01*
X127748203Y-77667351D01*
X127742636Y-77732721D01*
X127740693Y-77805287D01*
X127620819Y-77805287D01*
X127624729Y-77714587D01*
X127636828Y-77627906D01*
X127659027Y-77547678D01*
X127690134Y-77483009D01*
X127717529Y-77445444D01*
X127749720Y-77414405D01*
X127787099Y-77389342D01*
X127828455Y-77371495D01*
X127877162Y-77360197D01*
X127934683Y-77356186D01*
X127990083Y-77359814D01*
G37*
G36*
X128924721Y-77422498D02*
G01*
X128923683Y-77444785D01*
X128920935Y-77463958D01*
X128916172Y-77481788D01*
X128909028Y-77499923D01*
X128590658Y-78232285D01*
X128582109Y-78245596D01*
X128569103Y-78253778D01*
X128548953Y-78257869D01*
X128518911Y-78258907D01*
X128482702Y-78256831D01*
X128463957Y-78250420D01*
X128458828Y-78239490D01*
X128463590Y-78224103D01*
X128798325Y-77475376D01*
X128374137Y-77475376D01*
X128362973Y-77472101D01*
X128354658Y-77461699D01*
X128350020Y-77446446D01*
X128348186Y-77423230D01*
X128349895Y-77400638D01*
X128354963Y-77384518D01*
X128363146Y-77374931D01*
X128374137Y-77371817D01*
X128889184Y-77371817D01*
X128905914Y-77373893D01*
X128916844Y-77382076D01*
X128922645Y-77397829D01*
X128924721Y-77422498D01*
G37*
D31*
X128619047Y-68441869D02*
X128571428Y-68418059D01*
X128571428Y-68418059D02*
X128499999Y-68418059D01*
X128499999Y-68418059D02*
X128428571Y-68441869D01*
X128428571Y-68441869D02*
X128380952Y-68489488D01*
X128380952Y-68489488D02*
X128357142Y-68537107D01*
X128357142Y-68537107D02*
X128333333Y-68632345D01*
X128333333Y-68632345D02*
X128333333Y-68703773D01*
X128333333Y-68703773D02*
X128357142Y-68799011D01*
X128357142Y-68799011D02*
X128380952Y-68846630D01*
X128380952Y-68846630D02*
X128428571Y-68894250D01*
X128428571Y-68894250D02*
X128499999Y-68918059D01*
X128499999Y-68918059D02*
X128547618Y-68918059D01*
X128547618Y-68918059D02*
X128619047Y-68894250D01*
X128619047Y-68894250D02*
X128642856Y-68870440D01*
X128642856Y-68870440D02*
X128642856Y-68703773D01*
X128642856Y-68703773D02*
X128547618Y-68703773D01*
X128857142Y-68918059D02*
X128857142Y-68418059D01*
X128857142Y-68418059D02*
X129142856Y-68918059D01*
X129142856Y-68918059D02*
X129142856Y-68418059D01*
X129380952Y-68918059D02*
X129380952Y-68418059D01*
X129380952Y-68418059D02*
X129500000Y-68418059D01*
X129500000Y-68418059D02*
X129571428Y-68441869D01*
X129571428Y-68441869D02*
X129619047Y-68489488D01*
X129619047Y-68489488D02*
X129642857Y-68537107D01*
X129642857Y-68537107D02*
X129666666Y-68632345D01*
X129666666Y-68632345D02*
X129666666Y-68703773D01*
X129666666Y-68703773D02*
X129642857Y-68799011D01*
X129642857Y-68799011D02*
X129619047Y-68846630D01*
X129619047Y-68846630D02*
X129571428Y-68894250D01*
X129571428Y-68894250D02*
X129500000Y-68918059D01*
X129500000Y-68918059D02*
X129380952Y-68918059D01*
X128261905Y-69818059D02*
X128571429Y-69818059D01*
X128571429Y-69818059D02*
X128404762Y-70008535D01*
X128404762Y-70008535D02*
X128476191Y-70008535D01*
X128476191Y-70008535D02*
X128523810Y-70032345D01*
X128523810Y-70032345D02*
X128547619Y-70056154D01*
X128547619Y-70056154D02*
X128571429Y-70103773D01*
X128571429Y-70103773D02*
X128571429Y-70222821D01*
X128571429Y-70222821D02*
X128547619Y-70270440D01*
X128547619Y-70270440D02*
X128523810Y-70294250D01*
X128523810Y-70294250D02*
X128476191Y-70318059D01*
X128476191Y-70318059D02*
X128333334Y-70318059D01*
X128333334Y-70318059D02*
X128285715Y-70294250D01*
X128285715Y-70294250D02*
X128261905Y-70270440D01*
X128785714Y-70270440D02*
X128809524Y-70294250D01*
X128809524Y-70294250D02*
X128785714Y-70318059D01*
X128785714Y-70318059D02*
X128761905Y-70294250D01*
X128761905Y-70294250D02*
X128785714Y-70270440D01*
X128785714Y-70270440D02*
X128785714Y-70318059D01*
X128976190Y-69818059D02*
X129285714Y-69818059D01*
X129285714Y-69818059D02*
X129119047Y-70008535D01*
X129119047Y-70008535D02*
X129190476Y-70008535D01*
X129190476Y-70008535D02*
X129238095Y-70032345D01*
X129238095Y-70032345D02*
X129261904Y-70056154D01*
X129261904Y-70056154D02*
X129285714Y-70103773D01*
X129285714Y-70103773D02*
X129285714Y-70222821D01*
X129285714Y-70222821D02*
X129261904Y-70270440D01*
X129261904Y-70270440D02*
X129238095Y-70294250D01*
X129238095Y-70294250D02*
X129190476Y-70318059D01*
X129190476Y-70318059D02*
X129047619Y-70318059D01*
X129047619Y-70318059D02*
X129000000Y-70294250D01*
X129000000Y-70294250D02*
X128976190Y-70270440D01*
X129428571Y-69818059D02*
X129595237Y-70318059D01*
X129595237Y-70318059D02*
X129761904Y-69818059D01*
X128630952Y-71718059D02*
X128630952Y-71218059D01*
X128630952Y-71218059D02*
X128821428Y-71218059D01*
X128821428Y-71218059D02*
X128869047Y-71241869D01*
X128869047Y-71241869D02*
X128892857Y-71265678D01*
X128892857Y-71265678D02*
X128916666Y-71313297D01*
X128916666Y-71313297D02*
X128916666Y-71384726D01*
X128916666Y-71384726D02*
X128892857Y-71432345D01*
X128892857Y-71432345D02*
X128869047Y-71456154D01*
X128869047Y-71456154D02*
X128821428Y-71479964D01*
X128821428Y-71479964D02*
X128630952Y-71479964D01*
X129392857Y-71718059D02*
X129107143Y-71718059D01*
X129250000Y-71718059D02*
X129250000Y-71218059D01*
X129250000Y-71218059D02*
X129202381Y-71289488D01*
X129202381Y-71289488D02*
X129154762Y-71337107D01*
X129154762Y-71337107D02*
X129107143Y-71360916D01*
X128630952Y-73118059D02*
X128630952Y-72618059D01*
X128630952Y-72618059D02*
X128821428Y-72618059D01*
X128821428Y-72618059D02*
X128869047Y-72641869D01*
X128869047Y-72641869D02*
X128892857Y-72665678D01*
X128892857Y-72665678D02*
X128916666Y-72713297D01*
X128916666Y-72713297D02*
X128916666Y-72784726D01*
X128916666Y-72784726D02*
X128892857Y-72832345D01*
X128892857Y-72832345D02*
X128869047Y-72856154D01*
X128869047Y-72856154D02*
X128821428Y-72879964D01*
X128821428Y-72879964D02*
X128630952Y-72879964D01*
X129226190Y-72618059D02*
X129273809Y-72618059D01*
X129273809Y-72618059D02*
X129321428Y-72641869D01*
X129321428Y-72641869D02*
X129345238Y-72665678D01*
X129345238Y-72665678D02*
X129369047Y-72713297D01*
X129369047Y-72713297D02*
X129392857Y-72808535D01*
X129392857Y-72808535D02*
X129392857Y-72927583D01*
X129392857Y-72927583D02*
X129369047Y-73022821D01*
X129369047Y-73022821D02*
X129345238Y-73070440D01*
X129345238Y-73070440D02*
X129321428Y-73094250D01*
X129321428Y-73094250D02*
X129273809Y-73118059D01*
X129273809Y-73118059D02*
X129226190Y-73118059D01*
X129226190Y-73118059D02*
X129178571Y-73094250D01*
X129178571Y-73094250D02*
X129154762Y-73070440D01*
X129154762Y-73070440D02*
X129130952Y-73022821D01*
X129130952Y-73022821D02*
X129107143Y-72927583D01*
X129107143Y-72927583D02*
X129107143Y-72808535D01*
X129107143Y-72808535D02*
X129130952Y-72713297D01*
X129130952Y-72713297D02*
X129154762Y-72665678D01*
X129154762Y-72665678D02*
X129178571Y-72641869D01*
X129178571Y-72641869D02*
X129226190Y-72618059D01*
D32*
X128000000Y-69087500D02*
X130000000Y-69087500D01*
X128000000Y-70487500D02*
X130000000Y-70487500D01*
X128000000Y-71887500D02*
X130000000Y-71887500D01*
X128000000Y-69087500D02*
X130000000Y-69087500D01*
X128000000Y-67687500D02*
X130000000Y-67687500D01*
X130000000Y-67687500D02*
X130000000Y-73287500D01*
X130000000Y-73287500D02*
X128000000Y-73287500D01*
X128000000Y-73287500D02*
X128000000Y-67687500D01*
D31*
X105516666Y-69030559D02*
X105350000Y-68792464D01*
X105230952Y-69030559D02*
X105230952Y-68530559D01*
X105230952Y-68530559D02*
X105421428Y-68530559D01*
X105421428Y-68530559D02*
X105469047Y-68554369D01*
X105469047Y-68554369D02*
X105492857Y-68578178D01*
X105492857Y-68578178D02*
X105516666Y-68625797D01*
X105516666Y-68625797D02*
X105516666Y-68697226D01*
X105516666Y-68697226D02*
X105492857Y-68744845D01*
X105492857Y-68744845D02*
X105469047Y-68768654D01*
X105469047Y-68768654D02*
X105421428Y-68792464D01*
X105421428Y-68792464D02*
X105230952Y-68792464D01*
X105683333Y-68530559D02*
X106016666Y-69030559D01*
X106016666Y-68530559D02*
X105683333Y-69030559D01*
X105219048Y-69930559D02*
X105504762Y-69930559D01*
X105361905Y-70430559D02*
X105361905Y-69930559D01*
X105623809Y-69930559D02*
X105957142Y-70430559D01*
X105957142Y-69930559D02*
X105623809Y-70430559D01*
D32*
X104600000Y-69200000D02*
X106600000Y-69200000D01*
X104600000Y-69200000D02*
X106600000Y-69200000D01*
X104600000Y-67800000D02*
X106600000Y-67800000D01*
X106600000Y-67800000D02*
X106600000Y-70600000D01*
X106600000Y-70600000D02*
X104600000Y-70600000D01*
X104600000Y-70600000D02*
X104600000Y-67800000D01*
D22*
X129666666Y-54834819D02*
X129666666Y-55549104D01*
X129666666Y-55549104D02*
X129619047Y-55691961D01*
X129619047Y-55691961D02*
X129523809Y-55787200D01*
X129523809Y-55787200D02*
X129380952Y-55834819D01*
X129380952Y-55834819D02*
X129285714Y-55834819D01*
X130047619Y-54834819D02*
X130666666Y-54834819D01*
X130666666Y-54834819D02*
X130333333Y-55215771D01*
X130333333Y-55215771D02*
X130476190Y-55215771D01*
X130476190Y-55215771D02*
X130571428Y-55263390D01*
X130571428Y-55263390D02*
X130619047Y-55311009D01*
X130619047Y-55311009D02*
X130666666Y-55406247D01*
X130666666Y-55406247D02*
X130666666Y-55644342D01*
X130666666Y-55644342D02*
X130619047Y-55739580D01*
X130619047Y-55739580D02*
X130571428Y-55787200D01*
X130571428Y-55787200D02*
X130476190Y-55834819D01*
X130476190Y-55834819D02*
X130190476Y-55834819D01*
X130190476Y-55834819D02*
X130095238Y-55787200D01*
X130095238Y-55787200D02*
X130047619Y-55739580D01*
X106266666Y-59854819D02*
X106266666Y-60569104D01*
X106266666Y-60569104D02*
X106219047Y-60711961D01*
X106219047Y-60711961D02*
X106123809Y-60807200D01*
X106123809Y-60807200D02*
X105980952Y-60854819D01*
X105980952Y-60854819D02*
X105885714Y-60854819D01*
X106695238Y-59950057D02*
X106742857Y-59902438D01*
X106742857Y-59902438D02*
X106838095Y-59854819D01*
X106838095Y-59854819D02*
X107076190Y-59854819D01*
X107076190Y-59854819D02*
X107171428Y-59902438D01*
X107171428Y-59902438D02*
X107219047Y-59950057D01*
X107219047Y-59950057D02*
X107266666Y-60045295D01*
X107266666Y-60045295D02*
X107266666Y-60140533D01*
X107266666Y-60140533D02*
X107219047Y-60283390D01*
X107219047Y-60283390D02*
X106647619Y-60854819D01*
X106647619Y-60854819D02*
X107266666Y-60854819D01*
X120333333Y-71954819D02*
X120000000Y-71478628D01*
X119761905Y-71954819D02*
X119761905Y-70954819D01*
X119761905Y-70954819D02*
X120142857Y-70954819D01*
X120142857Y-70954819D02*
X120238095Y-71002438D01*
X120238095Y-71002438D02*
X120285714Y-71050057D01*
X120285714Y-71050057D02*
X120333333Y-71145295D01*
X120333333Y-71145295D02*
X120333333Y-71288152D01*
X120333333Y-71288152D02*
X120285714Y-71383390D01*
X120285714Y-71383390D02*
X120238095Y-71431009D01*
X120238095Y-71431009D02*
X120142857Y-71478628D01*
X120142857Y-71478628D02*
X119761905Y-71478628D01*
X121285714Y-71954819D02*
X120714286Y-71954819D01*
X121000000Y-71954819D02*
X121000000Y-70954819D01*
X121000000Y-70954819D02*
X120904762Y-71097676D01*
X120904762Y-71097676D02*
X120809524Y-71192914D01*
X120809524Y-71192914D02*
X120714286Y-71240533D01*
X113954819Y-83738094D02*
X112954819Y-83738094D01*
X112954819Y-83738094D02*
X112954819Y-83499999D01*
X112954819Y-83499999D02*
X113002438Y-83357142D01*
X113002438Y-83357142D02*
X113097676Y-83261904D01*
X113097676Y-83261904D02*
X113192914Y-83214285D01*
X113192914Y-83214285D02*
X113383390Y-83166666D01*
X113383390Y-83166666D02*
X113526247Y-83166666D01*
X113526247Y-83166666D02*
X113716723Y-83214285D01*
X113716723Y-83214285D02*
X113811961Y-83261904D01*
X113811961Y-83261904D02*
X113907200Y-83357142D01*
X113907200Y-83357142D02*
X113954819Y-83499999D01*
X113954819Y-83499999D02*
X113954819Y-83738094D01*
X113954819Y-82214285D02*
X113954819Y-82785713D01*
X113954819Y-82499999D02*
X112954819Y-82499999D01*
X112954819Y-82499999D02*
X113097676Y-82595237D01*
X113097676Y-82595237D02*
X113192914Y-82690475D01*
X113192914Y-82690475D02*
X113240533Y-82785713D01*
X110333333Y-71954819D02*
X110000000Y-71478628D01*
X109761905Y-71954819D02*
X109761905Y-70954819D01*
X109761905Y-70954819D02*
X110142857Y-70954819D01*
X110142857Y-70954819D02*
X110238095Y-71002438D01*
X110238095Y-71002438D02*
X110285714Y-71050057D01*
X110285714Y-71050057D02*
X110333333Y-71145295D01*
X110333333Y-71145295D02*
X110333333Y-71288152D01*
X110333333Y-71288152D02*
X110285714Y-71383390D01*
X110285714Y-71383390D02*
X110238095Y-71431009D01*
X110238095Y-71431009D02*
X110142857Y-71478628D01*
X110142857Y-71478628D02*
X109761905Y-71478628D01*
X110714286Y-71050057D02*
X110761905Y-71002438D01*
X110761905Y-71002438D02*
X110857143Y-70954819D01*
X110857143Y-70954819D02*
X111095238Y-70954819D01*
X111095238Y-70954819D02*
X111190476Y-71002438D01*
X111190476Y-71002438D02*
X111238095Y-71050057D01*
X111238095Y-71050057D02*
X111285714Y-71145295D01*
X111285714Y-71145295D02*
X111285714Y-71240533D01*
X111285714Y-71240533D02*
X111238095Y-71383390D01*
X111238095Y-71383390D02*
X110666667Y-71954819D01*
X110666667Y-71954819D02*
X111285714Y-71954819D01*
X105738095Y-45954819D02*
X105738095Y-46764342D01*
X105738095Y-46764342D02*
X105785714Y-46859580D01*
X105785714Y-46859580D02*
X105833333Y-46907200D01*
X105833333Y-46907200D02*
X105928571Y-46954819D01*
X105928571Y-46954819D02*
X106119047Y-46954819D01*
X106119047Y-46954819D02*
X106214285Y-46907200D01*
X106214285Y-46907200D02*
X106261904Y-46859580D01*
X106261904Y-46859580D02*
X106309523Y-46764342D01*
X106309523Y-46764342D02*
X106309523Y-45954819D01*
X107309523Y-46954819D02*
X106738095Y-46954819D01*
X107023809Y-46954819D02*
X107023809Y-45954819D01*
X107023809Y-45954819D02*
X106928571Y-46097676D01*
X106928571Y-46097676D02*
X106833333Y-46192914D01*
X106833333Y-46192914D02*
X106738095Y-46240533D01*
X116404761Y-68550057D02*
X116309523Y-68502438D01*
X116309523Y-68502438D02*
X116214285Y-68407200D01*
X116214285Y-68407200D02*
X116071428Y-68264342D01*
X116071428Y-68264342D02*
X115976190Y-68216723D01*
X115976190Y-68216723D02*
X115880952Y-68216723D01*
X115928571Y-68454819D02*
X115833333Y-68407200D01*
X115833333Y-68407200D02*
X115738095Y-68311961D01*
X115738095Y-68311961D02*
X115690476Y-68121485D01*
X115690476Y-68121485D02*
X115690476Y-67788152D01*
X115690476Y-67788152D02*
X115738095Y-67597676D01*
X115738095Y-67597676D02*
X115833333Y-67502438D01*
X115833333Y-67502438D02*
X115928571Y-67454819D01*
X115928571Y-67454819D02*
X116119047Y-67454819D01*
X116119047Y-67454819D02*
X116214285Y-67502438D01*
X116214285Y-67502438D02*
X116309523Y-67597676D01*
X116309523Y-67597676D02*
X116357142Y-67788152D01*
X116357142Y-67788152D02*
X116357142Y-68121485D01*
X116357142Y-68121485D02*
X116309523Y-68311961D01*
X116309523Y-68311961D02*
X116214285Y-68407200D01*
X116214285Y-68407200D02*
X116119047Y-68454819D01*
X116119047Y-68454819D02*
X115928571Y-68454819D01*
X117309523Y-68454819D02*
X116738095Y-68454819D01*
X117023809Y-68454819D02*
X117023809Y-67454819D01*
X117023809Y-67454819D02*
X116928571Y-67597676D01*
X116928571Y-67597676D02*
X116833333Y-67692914D01*
X116833333Y-67692914D02*
X116738095Y-67740533D01*
D23*
%TO.C,J3*%
X127870000Y-56650000D02*
X129200000Y-56650000D01*
X127870000Y-57980000D02*
X127870000Y-56650000D01*
X127870000Y-59250000D02*
X127870000Y-66930000D01*
X127870000Y-59250000D02*
X130530000Y-59250000D01*
X127870000Y-66930000D02*
X130530000Y-66930000D01*
X130530000Y-59250000D02*
X130530000Y-66930000D01*
%TO.C,J2*%
X104270000Y-64405000D02*
X104270000Y-61805000D01*
X106930000Y-61805000D02*
X104270000Y-61805000D01*
X106930000Y-64405000D02*
X104270000Y-64405000D01*
X106930000Y-64405000D02*
X106930000Y-61805000D01*
X106930000Y-65675000D02*
X106930000Y-67005000D01*
X106930000Y-67005000D02*
X105600000Y-67005000D01*
%TO.C,R1*%
X117977500Y-72087742D02*
X117977500Y-72562258D01*
X119022500Y-72087742D02*
X119022500Y-72562258D01*
%TO.C,D1*%
X115440000Y-82764000D02*
X115440000Y-82920000D01*
X115440000Y-85080000D02*
X115440000Y-85236000D01*
X115440000Y-82764484D02*
G75*
G02*
X118671397Y-82919939I1560000J-1235516D01*
G01*
X115959039Y-82920000D02*
G75*
G02*
X118040910Y-82919951I1040961J-1080000D01*
G01*
X118040910Y-85080049D02*
G75*
G02*
X115959039Y-85080000I-1040910J1080049D01*
G01*
X118671397Y-85080061D02*
G75*
G02*
X115440000Y-85235516I-1671397J1080061D01*
G01*
%TO.C,R2*%
X111977500Y-72087742D02*
X111977500Y-72562258D01*
X113022500Y-72087742D02*
X113022500Y-72562258D01*
D33*
%TO.C,U1*%
X108500000Y-46850000D02*
X108500000Y-46550000D01*
X108500000Y-69250000D02*
X108500000Y-66900000D01*
X113000000Y-45250000D02*
X113000000Y-46550000D01*
X113000000Y-46550000D02*
X108500000Y-46550000D01*
X122000000Y-45250000D02*
X113000000Y-45250000D01*
X122000000Y-45250000D02*
X122000000Y-46550000D01*
X126500000Y-46550000D02*
X122000000Y-46550000D01*
X126500000Y-46850000D02*
X126500000Y-46550000D01*
X126500000Y-69250000D02*
X108500000Y-69250000D01*
X126500000Y-69250000D02*
X126500000Y-66900000D01*
D23*
%TO.C,Q1*%
X113940000Y-71937500D02*
X113940000Y-71287500D01*
X113940000Y-71937500D02*
X113940000Y-72587500D01*
X117060000Y-71937500D02*
X117060000Y-71287500D01*
X117060000Y-71937500D02*
X117060000Y-72587500D01*
X113990000Y-73100000D02*
X113660000Y-73340000D01*
X113660000Y-72860000D01*
X113990000Y-73100000D01*
G36*
X113990000Y-73100000D02*
G01*
X113660000Y-73340000D01*
X113660000Y-72860000D01*
X113990000Y-73100000D01*
G37*
%TD*%
%LPC*%
D10*
%TO.C,J3*%
X129200000Y-57980000D03*
D11*
X129200000Y-60520000D03*
X129200000Y-63060000D03*
X129200000Y-65600000D03*
%TD*%
D10*
%TO.C,J2*%
X105600000Y-65675000D03*
D11*
X105600000Y-63135000D03*
%TD*%
D27*
%TO.C,R1*%
X118500000Y-71500000D03*
X118500000Y-73150000D03*
%TD*%
D12*
%TO.C,D1*%
X115730000Y-84000000D03*
D13*
X118270000Y-84000000D03*
%TD*%
D27*
%TO.C,R2*%
X112500000Y-71500000D03*
X112500000Y-73150000D03*
%TD*%
D28*
%TO.C,U1*%
X125485000Y-65780000D03*
X125485000Y-63240000D03*
X125485000Y-60700000D03*
X125485000Y-58160000D03*
X125485000Y-53080000D03*
X125485000Y-55620000D03*
X109515000Y-48000000D03*
X125485000Y-48000000D03*
X109515000Y-50540000D03*
X109515000Y-53080000D03*
X109515000Y-55620000D03*
X109515000Y-58160000D03*
X109515000Y-60700000D03*
X109515000Y-63240000D03*
X109515000Y-65780000D03*
X125485000Y-50540000D03*
%TD*%
D29*
%TO.C,Q1*%
X114550000Y-72875000D03*
X116450000Y-72875000D03*
X115500000Y-71000000D03*
%TD*%
%LPD*%
D34*
X129780000Y-83720000D02*
G75*
G02*
X127780000Y-83720000I-1000000J0D01*
G01*
X127780000Y-83720000D02*
G75*
G02*
X129780000Y-83720000I1000000J0D01*
G01*
X107000000Y-49500000D02*
G75*
G02*
X105000000Y-49500000I-1000000J0D01*
G01*
X105000000Y-49500000D02*
G75*
G02*
X107000000Y-49500000I1000000J0D01*
G01*
X107000000Y-83720000D02*
G75*
G02*
X105000000Y-83720000I-1000000J0D01*
G01*
X105000000Y-83720000D02*
G75*
G02*
X107000000Y-83720000I1000000J0D01*
G01*
X129780000Y-49500000D02*
G75*
G02*
X127780000Y-49500000I-1000000J0D01*
G01*
X127780000Y-49500000D02*
G75*
G02*
X129780000Y-49500000I1000000J0D01*
G01*
D35*
X103500000Y-45000000D02*
X131280000Y-45000000D01*
X131280000Y-86220000D01*
X103500000Y-86220000D01*
X103500000Y-45000000D01*
M02*
